<svg xmlns="http://www.w3.org/2000/svg" width="473.385" height="463.507" viewBox="191.383 165.694 355.039 347.63"><path fill="#fff" d="m380.311 382.874-4.45-1.324-2.793-.62-4.284-.475-4.277-.273-4.262-.065-4.255.137-5.66.496-5.637.857h-.447l-.417-.158-.339-.295-.208-.396-1.044-2.873-1.275-2.643-.353-.856-.014-.692.41-.748 1.001-.864 3.125-2.21 2.988-1.844 2.837-1.469 2.693-1.094 2.023-.763.64-.418-.755-.05-2.146.295-2.16.497-2.074.741-2.052.987-2.08 1.267-2.024 1.497-2.03 1.764-2.045 2.052-2.03 2.304-.98 1.34-.856 1.533-.742 1.707-.612 1.9-.137 1.376.288 1.526 1.11 3.14 1.706 4.14 1.54 3.75.965 2.7.684 2.499.403 2.369.353 4.197.072 4.047-.165 2.361-.44 2.506-.676 2.47-.944 2.57-1.173 2.534-1.433 2.57-1.591 2.42-1.807 2.369-2.081 2.253-2.297 1.966-2.794 1.843-3.06 1.498-.604.252-3.96 1.764-2.484 1.555-1.412 1.231-1.21 1.325-1.007 1.418-.8 1.512-.734 2.088-.396 2.24-.057 2.397.288 2.549.367 2.174-.144.26-.288-.044-1.613-1.67-1.332-1.764-1.044-1.85-.756-1.937-.382-1.52-.223-1.57-.057-1.62.1-1.67.339-1.944.554-1.785.612-1.368.735-1.275 1.9-2.433 2.542-2.311 3.204-2.232 1.994-1.318 1.548-1.217 1.253-1.231 1.008-1.289.972-1.713.843-2.283.403-2.304-.043-2.268-.476-2.369-.907-2.556-1.519-3.247-1.145-2.11-1.137-1.8-3.233-4.795-2.549-4.096-2.146-3.83-1.785-3.687-1.455-3.586-1.123-3.528-.777-3.434-.461-3.37-.202-4.298.166-4.198.533-4.097.9-3.996.208-.72 1.476-4.442 1.743-4.262 2.023-4.097 2.297-3.917 2.786-4.04 3.11-3.83 3.428-3.628 3.744-3.428 4.32-3.283 6.43-4.305 1.447-.785.043-.022.036-.036.1-.165.03-.137-.145-.015-3.664 1.052-1.548.64-1.361.706-3.233 2.045-3.118 2.246-3.002 2.448-2.866 2.635-2.714 2.801-2.549 2.967-2.333 3.06-2.138 3.182-1.922 3.269-1.707 3.37-1.461 3.39-1.239 3.485L302.3 360l-.741 3.506-.483 3.47-.237 3.514.014 5.984.425 5.32-.022.353-.158.303-2.002 1.95-2.217 1.894-2.312 1.728-2.397 1.556-2.477 1.39-2.844 1.331-2.945 1.123-3.045.915-3.161.713-5.127.842-5.53.64-2.202.138-2.124-.015-2.06-.173-1.98-.316-5.104-1.232-4.817-1.526-4.615-1.872-4.284-2.153-4.01-2.462-3.666-2.729-3.405-3.067-3.046-3.298-2.304-2.988-2.102-3.225-1.217-2.196-1.066-2.232-.914-2.283-.756-2.325-.857-3.65-.49-3.76-.129-3.858.23-3.96.317-1.944.663-2.693.712-2.895.339-2.152.036-1.836-.26-1.62-.547-1.692-.928-2.096-1.188-1.994-1.44-1.9-1.7-1.808-.41-.583-.065-.173-.014-.086.137-.41.403-.166 2.426.252 2.283.49 2.145.74 2.002.987 1.742 1.138 1.627 1.36 1.505 1.57 1.375 1.786.77 1.591.973 2.858.338 1.368.238 1.584.201 4.464.05 2.06.375 3.484.41 1.865.555 1.815 1.512 3.484 2.06 3.298 2.548 3.01 2.549 2.368 2.678 1.995 2.815 1.62 2.945 1.253 3.399.943 3.556.497 3.716.036 3.88-.41 3.435-.735 3.218-1.044 3.003-1.368 2.786-1.678 2.772-2.181 2.52-2.556 2.26-2.93 2.01-3.306 1.216-2.664.612-2.325v-.007l-.122-.468-.425-.238-1.094-.094-2.427-.316-4.096-1.188-3.953-1.44-3.795-1.692-3.65-1.959-2.642-1.634-2.564-1.786-2.476-1.922-2.39-2.074-1.491-1.49-1.8-2.038-4.55-5.724-8.929-12.002-1.95-2.47-2.384-2.57-2.8-2.679-3.234-2.779-1.807-1.325-2.03-1.202-2.124-.994-2.232-.792-2.196-.532-2.067-.274-1.994-.022-1.937.245-3.434.879-2.693 1.166-1.9 1.253-1.902 1.67-1.641 1.743-1.455 1.807-2.304 3.564-1.886 3.96-1.534 4.514-1.252 5.235-.137.496-.159.173-.345-.64-1.001-4.357-.497-4.492.05-4.472.577-4.276 1.094-4.018 1.577-3.68.972-1.72 1.109-1.649 1.195-1.512 1.325-1.433 1.627-1.483 3.067-2.333 3.089-1.908 3.11-1.476 3.132-1.05 2.491-.548 2.787-.382 3.074-.223 3.363-.065 2.44.094 3.392.425 3.434.777 3.348 1.102 3.384 1.462 3.37 1.8 3.398 2.152 3.485 2.542 3.542 2.93 2.88 2.823 4.947 5.241 2.93 3.082 2.405 2.347 2.275 1.995 2.21 1.677 2.204 1.404 2.174 1.123 2.268.893 2.254.612 2.361.367 1.167.101 4.219.144 4.248-.216 1.778-.41.727-.375.612-.49.713-.928.475-1.18.065-.505-.122-.374-.31-.252-.497-.123-3.578-.525-3.542-.843-3.514-1.159-3.478-1.476-4.039-2.045-4.003-2.31-3.86-2.514-3.614-2.656-3.384-2.808-3.081-2.88-2.83-3.032-2.484-3.06-2.181-3.067-2.002-3.16-1.814-3.24-1.628-3.32-1.893-4.593-1.563-4.745-1.224-4.903-.892-5.048-.224-2.556-.136-4.464-.159-5.198-.266-3.535-.418-3.701-.533-3.046-.885-2.937-1.253-2.909-1.57-2.75-1.908-2.657-2.181-2.434-2.455-2.239-2.657-1.951-1.793-1.03-1.987-.893-2.218-.77-2.318-.605-2.42-.432-2.411-.245-2.29-.05-2.182.144-3.636.569-3.499.85-3.362 1.123-3.226 1.396-.691.252-.396-.072-.094-.381.195-.699.626-.727.742-.792 4.406-4.478 1.764-1.49 1.67-1.16 3.73-2.03 3.759-1.512 3.794-1.001 3.816-.482 1.18-.044 3.694.101 3.572.418 3.448.749 3.327 1.065 2.923 1.253 2.822 1.526 2.715 1.793 2.62 2.06 2.24 2.023 2.131 2.145 1.93 2.182 1.785 2.29 1.57 2.282 1.411 2.383 1.21 2.398 1.044 2.484.957 2.714 1.289 4.378 1.54 6.357 1.038 4.421 1.49 5.652 1.39 4.01 1.087 2.39 1.217 2.298 1.346 2.203 1.469 2.102 2.059 2.542 2.268 2.383 2.477 2.225 2.678 2.073 3.175 2.052 3.248 1.678 3.333 1.296 3.413.922 4.14.597 4.255.065 4.37-.468 4.479-1 .367-.152.144-.187-.079-.216-.31-.252-1.807-.965-2.613-1.087-2.067-.857-3.571-1.865-3.492-2.189-3.434-2.498-3.356-2.822-3.052-3.053-2.744-3.399-2.433-3.75-2.117-4.105-1.973-4.737-1.166-3.83-.886-4.609-.569-4.514-.252-4.37.072-4.35.404-4.449.748-4.486.216-1.036 1.577-8.46.396-3.27.195-3.023-.022-2.844-.23-2.671-.468-2.556-.684-2.362-.843-2.146-.986-2.03-1.16-1.98-1.295-1.843-2.355-2.7-2.65-2.362-2.98-2.059-3.211-1.685-3.456-1.325-3.622-.936-3.758-.532-3.852-.13-.18-.086-.022-.202.036-.065.929-.871 1.281-.842 1.505-.728 1.793-.655 2.074-.561 2.203-.432 2.26-.281 1.973-.08 2.24.231 4.183.648 3.492.886 3.557 1.483 3.664 2.095 3.622 2.62 2.93 2.672 2.628 3.096 2.319 3.52 1.965 3.903 1.613 4.248 1.239 4.543.864 4.86.468 5.019.014 2.959-.245 4.464-.245 6.228.31 4.27.785 4.305 1.231 4.176 1.627 3.867 1.987 3.499 2.297 3.06 2.635 2.642 2.88 2.131 2.78 1.563 2.83 1.245 2.88.936 2.922.62 2.39.273 7.071.735 6.56 1.166 6.062 1.606 2.844.964 2.714 1.073.778.209.878.043 2.002-.353 4.039-1.116 4.284-.813 4.392-.49 4.306-.13 4.154.21 3.917.547 3.686.892 3.327 1.21.13.05.597.137.648-.007 1.454-.44 2.556-1.115 2.506-.929 3.924-1.152 4.255-.893 4.903-.713 7.049-.763 2.254-.295 2.21-.44 2.08-.56 2.024-.7 1.951-.834 1.887-.98 1.742-1.087 1.67-1.224 2.153-1.908 1.98-2.174 1.865-2.499 1.577-2.577 1.339-2.707 1.073-2.78.85-2.894.633-3.103.41-3.226.188-3.434-.044-3.564-.252-3.766-.043-3.859.36-6.228.36-3.046.605-3.096.85-3.11 1.08-3.067 1.252-2.873 1.455-2.75 1.584-2.499 1.75-2.304 2.26-2.484 2.412-2.21 2.563-1.944 2.708-1.678 3.808-1.8 4.068-1.339 3.63-.742 3.549-.28 3.398.172 3.305.627 3.254 1.116 3.14 1.591.792.569.208.417-.381.252-.98.101-3.52.216-3.37.555-3.218.87-3.067 1.21-2.657 1.376-2.535 1.648-2.404 1.923-2.283 2.189-1.735 1.994-1.498 2.088-1.26 2.182-1.022 2.268-.684 2.016-.504 2.08-.418 2.621-.208 2.628.043 3.579.41 3.592.98 5.645 1.547 9.641.346 3.607.144 3.456-.1 4.061-.433 5.3-.612 4.11-.684 3.024-.828 2.902-.979 2.78-1.116 2.649-1.267 2.527-1.419 2.398-1.555 2.275-1.706 2.153-3.334 3.57-3.621 3.205-3.572 2.628-3.816 2.318-4.053 2.016-4.299 1.721-1.836 1.109-.144.187.18.151 2.528.907 2.822.288 3.917.36h2.642l3.255-.367 3.146-.619 3.031-.871 2.923-1.123 2.484-1.196 2.39-1.39 2.305-1.59 2.225-1.779 3.002-2.887 2.786-3.29 2.55-3.687 2.332-4.082 1-2.167.908-2.47.828-2.794.734-3.096 2.528-10.864 1.21-4.256 1.526-4.096 1.814-3.852 2.124-3.65 2.362-3.349 2.65-3.117 2.886-2.808 3.154-2.55 3.398-2.238 3.665-1.944 2.398-1.008 2.325-.75 2.304-.532 2.499-.353 2.815-.201 3.42-.065 2.455.093 2.39.296 2.081.417 2.024.562 2.037.727 1.987.864 1.995 1.03 1.937 1.173 3.816 2.808 2.167 2.182 2.534 3.261.324.533.022.288-.288.043-.59-.201-3.219-1.275-3.24-1.015-3.276-.763-3.305-.511-2.318-.209-2.556-.05-2.455.18-2.42.403-2.325.619-2.009.742-1.922.9-1.908 1.101-1.822 1.253-1.8 1.454-1.714 1.613-1.67 1.807-1.591 1.959-1.332 1.937-1.116 2.03-.936 2.153-.792 2.376-.605 2.47-.454 2.678-.295 2.909-.137 3.11-.352 8.251-.785 6.84-.59 3.168-.713 2.995-.886 2.967-1.008 2.815-.749 1.8-1.771 3.838-1.85 3.57-1.988 3.42-2.059 3.162-2.174 2.959-2.34 2.83-2.441 2.62-2.62 2.491-2.32 1.966-2.454 1.872-7.726 5.386-2.722 1.713-1.958 1.059-5.724 2.433-2.167.72-1.707.389-7.387 1.332-.245.151-.007.288.763 1.606.512.597.59.454 1.21.446 3.866.555 3.658.187 3.441-.173 3.233-.533 1.642-.46 1.605-.62 3.276-1.75 3.42-2.469 3.593-3.225 4.622-4.666 4.788-4.846 3.564-3.427 3.104-2.729 2.75-2.116 2.729-1.793 2.793-1.584 2.88-1.383 2.945-1.166.115-.043 4.608-1.325 4.695-.763 2.361-.166 2.362-.021 2.347.122 2.333.266 2.232.404 2.21.547 2.16.684 2.11.828 2.03.957 1.966 1.102 1.836 1.202 1.771 1.332 2.103 1.872 1.972 2.088 1.167 1.47 1.058 1.583.958 1.692.842 1.8 1.138 3.039.82 3.038.512 3.053.201 3.045-.05 2.24-.216 2.246-.389 2.24-.554 2.246-.173.972-.144.547-.238.396-.13.1h-.438l-.245-.36-.57-3.311-.841-3.168-1.116-3.01-1.397-2.858-1.347-2.225-1.526-2.124-1.714-2.023-1.9-1.923-2.254-1.821-2.448-1.433-1.757-.735-1.85-.554-2.153-.36-2.232-.05-2.311.266-2.398.576-2.714.972-2.707 1.289-2.57 1.548-2.542 1.857-2.427 2.117-2.354 2.398-2.275 2.685-2.153 2.924-4.55 6.638-5.437 7.114-3.088 3.657-3.298 3.334-3.514 3.002-3.73 2.671-3.347 2.016-3.507 1.779-3.657 1.54-3.816 1.304-6.682 1.807-.525.338v.62l1.072 2.757 1.29 2.635 1.454 2.42 1.648 2.253 1.764 1.98 1.952 1.793 2.066 1.54 2.246 1.318.123.065 2.225 1.059 2.16.87 2.224.728 2.124.547 2.067.367 2.08.202 1.988.022 1.987-.152 3.182-.46 2.607-.533 2.29-.677 2.109-.842 1.858-.958 2.613-1.67 2.376-1.858 2.117-2.045 1.872-2.232 1.483-2.174 1.275-2.326 1.072-2.484.872-2.628.64-3.326.281-4.651.166-3.521.425-2.506.864-2.433 1.296-2.37 1.656-2.166 1.965-1.908 2.225-1.592 2.347-1.173 2.491-.77.699-.152 1.692-.324 1.195-.043.986.173.224.194-.015.288-.043.065-3.038 3.614-.958 1.404-.763 1.361-.857 2.074-.634 2.304-.187 1.281-.021 1.448.439 3.348 1.217 6.026.338 2.347.13 2.39-.08 2.528-.288 2.556-.496 2.721-.699 2.715-.885 2.757-1.11 2.852-1.194 2.52-1.512 2.584-1.743 2.513-2.016 2.513-2.239 2.44-2.462 2.362-2.592 2.182-2.614 1.937-4.572 2.815-4.975 2.434-5.371 2.03-5.782 1.649-3.002.583-3.233.338-3.348.087-3.514-.159-3.621-.403-3.701-.655-3.751-.886-3.694-1.108-2.167-.807-2.045-.914-1.987-1.059-1.93-1.202-1.872-1.332-3.571-3.089-3.348-3.636-.173-.295-.057-.374.352-3.708.281-2.535.065-1.843-.23-4.068-.504-3.982-.77-3.902-1.038-3.816-1.62-4.514-2.016-4.392-2.412-4.263-2.808-4.147-3.182-4.025-3.413-3.715-3.636-3.406-3.866-3.103-2.448-1.735-2.232-1.39-2.283-1.202-2.347-1.022-2.397-.828-.152.158.05.058 4.609 3.124 4.428 3.341 5.666 4.831 1.959 1.923 2.037 2.253 4.407 5.566 3.312 4.946 2.736 5.084 1.159 2.592 1.015 2.628.871 2.664.727 2.7.692 3.283.496 3.693.188 3.701-.058 2.527-.202 2.528-.345 2.534-.497 2.534-1.433 5.062-2.016 5.076-1.728 3.34-2.721 4.616-7.856 13.032-.734 1.67-.612 1.98-.425 2.146-.201 2.08.021 1.952.23 1.72.454 1.585.641 1.267.533.763 1.065 1.246 1.26 1.152 1.541 1.13 2.131 1.347 2.938 1.9 1.98 1.67 1.426 1.57 1.288 1.743 1.044 1.785.836 1.887.54 1.8.295 1.829.021 1.75-.244 1.742-.915 2.808-.684 1.368-.885 1.41-2.722 3.414-.49.374.015-.62.504-2.757.115-2.606-.274-2.455-.655-2.312-.986-2.044-1.325-1.916-1.678-1.77-2.023-1.65-2.16-1.31-3.42-1.627-3.564-1.692-2.491-1.447-2.11-1.577-1.764-1.771-2.49-3.039-1.671-2.318-1.296-2.254-.95-2.26-1.491-5.019-.9-4.651-.187-2.261.1-2.412.469-3.557.115-.756.576-2.887.885-3.074 1.196-3.334 1.857-4.536 1.375-3.326.454-1.47.166-1.482-.058-1.138-.216-1.145-.389-1.152-.554-1.152-1.404-2.369-1.469-2.152-1.584-1.959-1.634-1.706-1.743-1.512-1.764-1.239-1.865-1.036-1.994-.836-.288-.1h-.295l.029.288.417.59.223.151 1.772 1.066 1.23.957.85.965.41.958-.014.626-.295.555-.504.36-.619.093-.389-.086-3.708-1.31-.907-.109.655.634 1.987 1.555 1.85 1.829.404.547.245.555.079 1.13-.374 1.411-1.318 2.938-2.426 4.572-.08.655.404.518 1.958 1.13.216.202.094.267.072 1.505-.137 1.36-.987 5.919-.67 5.148.044.302.223.202 2.06 1.08.583.396.46.482.41.763.195.922 1.375 8.971.8 4.255 1.368 5.99 1.195 5.163.662 3.463.583 4.81.173 4.738-.223 4.658-.634 4.586-.727 3.363-.95 3.326-1.181 3.283-1.397 3.24-1.793 3.233-2.08 2.693-1.31 1.303-1.426 1.195-1.628 1.152-1.778 1.08-3.758 2.038-4.68 2.534-3.377 2.024-2.88 1.987-2.427 1.994-.784.871-.72 1.066-.584 1.166-.403 1.181-.338 1.728-.13 1.678.072 1.634.281 1.577.842 2.369 1.347 2.239 2.131 2.6 1.498 1.504 1.612 1.404 1.721 1.296 1.843 1.188.548.403.46.483.144.33-.36.008-4.428-1.31-4.212-1.678-3.772-1.937-3.32-2.21-2.757-2.39-2.24-2.6-1.663-2.757-1.116-2.916-.381-1.721-.18-2.39.245-2.535.662-2.52 1.087-2.578 1.483-2.556 1.858-2.49 2.153-2.283 2.304-1.951 1.238-.8 1.368-.648 1.534-.532 1.764-.432 3.967-.497 4.63-.029.036-.007.014-.029.007-.202-.014-.036-.036-.014-.029-.007-5.926-1.534-2.203-.785-1.922-.864-1.685-.972-1.375-1.058-1.152-1.21-.835-1.26-.044-.086-.057-.353.093-.345.23-.281.318-.159 21.6-5.63.007-.022h-.007l-4.112-.799-4.665-1.087-2.722-.929-2.419-1.353-1.447-1.138-1.31-1.325-1.189-1.512-1.05-1.706-.073-.317.151-.288.922-.878 1.044-.792 2.448-1.325 3.938-1.57 3.968-1.325 3.981-1.101 4.01-.857.116-.072.014-.137-.093-.151h-.015l-3.11-.223-6.516-.569-4.608-.842-2.067-.605-1.879-.727-1.821-.9-1.635-1.016-1.627-1.245-1.555-1.469-.706-.98-.194-.942.115-.519.266-.504 1.008-.979 4.918-3.226 3.838-2.08 3.996-1.822 4.147-1.555 4.305-1.296.26-.115-.281-.072-1.31-.13-2.744-.18-3.182.1-7.683.102-2.894-.188-2.635-.367-3.737-.85-1.296-.439-.922-.46-1.036-.735-.893-.813-.756-.893-.612-.965-.54-1.217-.346-1.317-.007-.382.137-.396.605-.763.95-.612 3.636-1.447 3.672-1.239 3.715-1.037 3.759-.842 5.133-.806 5.206-.44.792-.108-.778-.172-.597-.094-1.736-.166h-3.967l-2.945-.194-2.93-.367-1.598-.101-2.384.08-7.12.669-2.463.158-3.391-.072-.158-.007-.57-.13-.568-.324-1.231-1.238-1.375-2.08-1.39-2.751-.151-.54.036-.562.209-.525.367-.425 2.095-1.541 2.47-1.426 2.822-1.274 3.132-1.116 3.456-.95 3.65-.75 3.83-.54 3.78-.302 5.674-.194h5.228l.237-.029Zm93.161-214.761-.022-.058-.079-.021-3.038.36-2.967.698-2.959 1.044-2.83 1.346-2.757 1.67-2.578 1.93-2.404 2.218-2.146 2.42-1.382 1.893-1.268 2.08-1.202 2.319-1.066 2.42-.957 2.613-.785 2.606-.62 2.635-.41 2.513-.36 3.6-.194 3.874-.036 4.14.13 4.406.05 6.012-.432 5.285-.626 3.168-1.001 3.269-1.361 3.283-1.67 3.204-1.908 2.96-2.052 2.598-2.24 2.297-2.296 1.85-2.924 1.83-2.008 1.022-2.175.921-2.225.778-2.419.677-5.393 1.073-7.804 1.036-2.002.238-3.132.511-3.377.792-3.643 1.073-3.888 1.36-.072.058-.022.144h.008l.057.101.13.007 5.616-1.41 5.673-1.03 4.918-.584 4.96-.302 6.423-.338 2.232-.274 1.836-.382 3.68-1.137 3.254-1.383 2.822-1.62 2.398-1.864 2.873-2.859 2.512-3.024 2.146-3.197 1.786-3.362 1.648-4.226 1.13-4.464.613-4.71.1-4.946-.035-16.034.136-2.78.368-2.894.576-2.894.799-2.887.972-2.743 1.116-2.513 1.303-2.39 1.404-2.096 2.88-3.715 1.93-2.102 2.318-1.865 2.563-1.714 2.808-1.548 3.053-1.39 2.83-.943 2.628-.504.05-.021.036-.101Zm-203.702 1.685 2.088.9 1.612.648 1.174.612 2.78 1.879 2.54 2.059 2.312 2.246 2.066 2.427 2.074 2.988 1.764 3.233 1.462 3.463 1.152 3.7 1.008 4.81.403 3.406.187 3.607-.007 4.018-.209 5.904-.014.381-.094 6.675.115 2.541.238 2.009.749 3.636.986 3.42 1.253 3.276 1.469 3.01 1.706 2.786 1.886 2.484 2.16 2.282 2.319 1.966 3.06 2.088 3.146 1.67 3.226 1.268 3.297.856 2.398.36 8.971.778 4.659.497 4.852.857 5.055 1.21 5.249 1.576h.1l.036-.108v-.245l-.043-.151-.115-.08-6.574-2.296-6.847-1.829-3.686-.705-5.019-.692-5.176-.72-2.261-.446-2.196-.583-2.139-.72-2.08-.857-3.082-1.577-1.894-1.202-1.778-1.361-1.714-1.555-1.598-1.7-1.49-1.857-1.361-1.973-1.26-2.138-1.116-2.24-.994-2.375-.842-2.448-.677-2.506-.518-2.542-.353-2.563-.187-2.57-.022-2.563.158-2.535.353-7.567-.065-4.457-.439-4.406-.511-2.923-.684-2.895-.85-2.865-1.022-2.844-1.642-3.5-2.196-3.535-1.77-2.102-3.14-3.183-1.613-1.425-1.879-1.39-2.16-1.353-2.16-1.145-1.663-.706-1.793-.569-1.915-.424-2.045-.296-.13.015-.093.057-.223.216-.008.008.03.05.9.173 1.41.302Zm4.276 6.602-.136.418.223.482.317.194.367-.043.605-.079.554.266.497.612.086.101.144.065.26-.022.158-.482-.029-.151-.62-1.095-.82-.828-1.116-.612-1.346-.31-.144.03-.065.13-.036.266v.021l.065.18.18.072.439.043.324.173.029.029.144.26Zm188.187-.202.151-.187.41-.28.555-.137.194-.101.08-.202v-.209l-.022-.072-.08-.021-.791.151-.677.317-.72.677-.526.964.036.447.375.252h.115l1.245-.202 1.001-.331.756-.468.519-.598.352-.705.015-.339-.339.03-.67.38-1.144 1.282-.209.13-.252-.036-.223-.137-.202-.266.044-.331Zm-7.69 12.305.605.025.665-.355.624-.683.489-.905.278-.99.025-.925-.232-.718-.452-.402-.605-.025-.665.355-.625.683-.488.905-.278.99-.025.925.232.718Zm-172.267-4.529-.504-.252-.562.044-.619.302-.389.418-.064.453.194.627 1.13 1.93 1.448 1.446.216.116.36.036.338-.137.238-.267.093-.352-.158-1.599-.54-1.382-.519-.735Zm3.848 17.638.6-.363.43-.846.194-1.2-.072-1.371-.326-1.333-.533-1.093-.656-.685-.68-.175-.601.364-.43.846-.194 1.2.072 1.37.328 1.334.531 1.092.657.686Zm166.324-.005.554-.497.425-.734.216-.922.022-.18.115-1.692-.094-1.267-.324-.972-.532-.605-.094-.057-.072-.036-.418-.108-.424.072-.36.23-.238.36-.403 1.325-.375 1.793-.014 1.137.346.994.532.67.728.51.201.051Zm-240.055 3.521 3.139-.482 2.887-.274 2.628-.072 2.369.137 2.484.353 2.405.532 2.325.699 2.254.878 2.894 1.44 2.758 1.757 3.888 3.096 3.773 3.665 2.541 2.959 2.175 3.096 1.332 2.297 1.18 2.412 1.073 2.613.95 2.787 1.527 5.573 1.62 7.394 1.145 5.32.914 3.32 1.138 3.233 1.346 3.125 1.563 3.016 1.771 2.91 1.966 2.757 2.138 2.599 2.318 2.42 2.441 2.202 2.6 1.995 2.67 1.735 2.794 1.52 2.837 1.26 2.945 1.014 2.959.75 3.046.503 3.484.252 3.572-.1 3.542-.44 3.6-.792 4.27-1.512 2.908-1.094.065-.05-.021-.073-.152-.223-.1-.086-.152-.015-5.5 1.268-3.68.633-4.55.31-4.385-.166-4.233-.64-4.068-1.11-3.658-1.454-3.52-1.872-3.385-2.282-3.24-2.693-2.808-2.772-2.527-2.923-2.246-3.082-1.959-3.24-1.49-2.966-1.275-3.089-1.05-3.211-.836-3.327-3.326-14.479-.972-3.283-1.217-3.182-1.498-3.118-1.757-3.017-2.023-2.901-2.275-2.787-3.24-3.312-3.434-2.8-3.636-2.297-3.83-1.786-3.975-1.274-4.176-.77-4.363-.289-4.558.216-3.305.555-2.88.979-.093.057-.065.065-.058.137h.151l.533-.31Zm312.033-.44-3.261-.597-4.738-.381-3.7-.008-3.428.368-3.153.727-2.873 1.094-.483.23-5.068 2.564-1.815 1.159-1.533 1.188-2.859 2.65-2.599 2.75-2.333 2.851-2.066 2.96-1.267 2.13-1.174 2.305-1.03 2.39-.95 2.592-1.663 5.868-1.894 8.618-.345 1.656-1.16 4.565-1.533 4.32-1.901 4.075-2.275 3.824-2.42 3.312-2.735 3.096-3.046 2.887-3.362 2.685-2.196 1.49-2.283 1.326-2.361 1.152-2.427.979-3.067.972-3.154.691-3.21.418-3.262.144-4.104-.324-5.962-1.095-2.83-.561-.986-.044.792.584 2.606 1.216 2.772.972 2.952.728 3.125.482 3.5.238 3.412-.08 3.327-.396 3.247-.705 3.47-1.152 3.37-1.534 3.261-1.915 3.161-2.297 4.075-3.629 3.636-3.988 1.664-2.139 1.54-2.232 2.758-4.737 1.39-3.147 1.202-3.672 1.058-4.233 1.167-5.818.727-3.751 1.267-5.278 1.447-4.435 1.757-3.996 2.139-3.658 1.159-1.641 2.959-3.852 1.75-2.067 2.376-2.246 2.47-2.016 2.555-1.786 2.643-1.548 2.613-1.245 2.635-.98 2.657-.705 2.686-.432 3.607-.223 3.578.13 4.112.59.007-.015.029-.187-.022-.144Zm-241.812 10.326.41.626.706.26.836-.08.676-.28.526-.44.403-.576.504-1.606.05-2.26-.417-2.297-.238-.461-.54-.425-.67-.122-.662.201-.49.483-.971 2.052-.418 2.088.029 1.411Zm170.96 1.081.4-.141.361-.306.554-1.055.26-1.5-.07-1.717-.394-1.673-.654-1.374-.817-.867-.431-.198-.424-.028-.4.141-.361.307-.554 1.054-.26 1.5.07 1.717.394 1.673.654 1.375.817.866.431.198Zm-226.688-7.41-1.05-.36-.706-.274-.44-.029-.417.152-.31.316-.151.418-.007.158.093.548.605.878 1.138.677 1.627.432 1.771.122.123-.014.453-.353.015-.569-.483-.842-.64-.634-.742-.403Zm287.128.333-.413-.526-.815-.304-1.093-.036-1.204.236-1.132.473-.887.639-.508.706-.052.666.414.525.815.304 1.093.037 1.203-.236 1.132-.474.888-.638.508-.706Zm-13.463 7.868-2.03 2.066-.202.367.36.195.821-.008.475-.136.461-.26 1.332-1.224.446-.676.303-.72.151-.699-.043-.662-.274-.576-.453-.382-.54-.1-.31.086-1.462.893-1.238 1.166-.684 1.152-.122 1.094.223.454.194.115h.173l.05-.165-.021-.476.036-.295.1-.216.829-1.03.799-.633.626-.288.317.022v.316Zm-260.393 2.55.326-.675-.071-.919-.458-1.022-.775-.971-.974-.772-1.024-.455-.92-.068-.673.328-.326.675.071.92.459 1.022.774.97.974.772 1.025.455.919.068Zm213.977 13.007.519-.082.503-.268.886-1.046.613-1.583.248-1.88-.155-1.888-.535-1.612-.834-1.088-.49-.292-.515-.107-.519.082-.503.268-.886 1.046-.613 1.583-.248 1.88.156 1.888.535 1.612.834 1.088.49.292Zm-170.54-.133.469-.127.437-.309.714-1.107.415-1.61.052-1.87-.318-1.84-.64-1.536-.865-.994-.477-.243-.482-.06-.468.128-.437.309-.714 1.107-.415 1.61-.052 1.869.318 1.842.64 1.535.865.994.477.243Zm207.176.957.47.077.505-.08 1.04-.615.947-1.133.708-1.477.363-1.598-.038-1.475-.433-1.128-.347-.377-.416-.232-.47-.077-.506.08-1.04.615-.946 1.132-.709 1.478-.362 1.598.038 1.475.433 1.128.347.377Zm-243.555-.065.379-.234.306-.374.35-1.104-.039-1.433-.42-1.542-.74-1.418-.945-1.077-1.007-.573-.479-.066-.437.085-.379.235-.306.374-.35 1.104.039 1.432.42 1.543.74 1.418.945 1.077 1.007.573.479.066Zm202.093 10.756-.05 1.252.086.936.237.699.425.533.641.302.907.043.814-.165.677-.317.676-.576.584-.871.424-1.08.332-1.376.093-.885-.057-.864-.39-1.325-.755-1.267-.353-.31-.44-.151-.467.022-.418.194-1.36 1.26-.958 1.454-.432 1.188Zm-162.568 4.221.522-.224.457-.394.375-.547.28-.68.23-1.652-.23-1.822-.653-1.718-.978-1.349-.566-.47-.589-.307-.589-.133-.565.047-.522.224-.457.394-.375.547-.28.68-.23 1.652.23 1.822.653 1.717.978 1.35.566.47.589.307.589.133Zm-37.556 3.036h.036l.446-.18.41-.403.713-1.188.425-1.303.159-1.455-.108-1.483-.39-1.497-.626-1.404-.842-1.239-1.037-1.015-.18-.094-.295-.028-.28.093-.145.137-.785 1.224-.54 1.397-.302 1.505-.036 1.54.223 1.47.49 1.389.705 1.166.958 1.001.497.295.475.08Zm238.068-8.82-.367.655-.05.216-.21 2.47.152 2.196.496 1.7.843 1.245.021.021.41.26.476.072.468-.116.389-.288.929-1.26.648-1.353.403-1.872-.065-2.038-.08-.806-.172-1.239-.382-.813-.396-.382-.561-.324-.295-.086-.605.05-.598.288Zm-189.81 19.943.415-.42.29-.554.15-.669.01-.757-.41-1.662-.917-1.643-1.285-1.375-1.456-.899-.724-.223-.683-.06-.617.106-.526.267-.415.42-.29.555-.151.668-.009.757.41 1.662.917 1.643 1.285 1.375 1.456.899.724.223.682.06.617-.105Zm142.554.094.527.315.63.156.707-.01.758-.173 1.552-.808 1.4-1.312 1.037-1.614.516-1.672.033-.777-.118-.697-.268-.59-.405-.463-.527-.315-.63-.156-.707.01-.758.173-1.552.809-1.4 1.31-1.037 1.615-.515 1.672-.034.777.119.697.267.59Zm-186.794 8.414.544-.26.467-.459.372-.637.261-.793.158-1.925-.34-2.126-.79-2.004-1.115-1.576-.629-.55-.644-.36-.635-.155-.602.052-.545.26-.467.459-.371.638-.262.792-.158 1.925.342 2.126.788 2.004 1.116 1.577.629.549.644.36.635.156Zm231.443-.1.6.056.636-.152.646-.354.63-.544 1.123-1.564.796-1.992.35-2.116-.149-1.919-.258-.79-.369-.639-.465-.46-.544-.262-.6-.057-.636.152-.646.355-.63.543-1.123 1.564-.796 1.992-.351 2.116.15 1.919.258.792.369.637.465.46Zm-169.113.528-.072-1.792-.223-.742-.346-.648-.691-.835-.879-.778-.957-.626-1.044-.497-.972-.288-.98-.115-.892.072-.864.266-.987.641-.532.792-.137.914.23.95.576.958.835.836 1.844 1.152 1.944.626 1.713.122 1.779-.244.453-.26Zm107.15.03.209.503.46.245 1.794.209 1.713-.159 1.93-.67 1.821-1.187.821-.85.555-.972.208-.95-.15-.915-.548-.784-1-.627-.872-.245-.9-.05-.98.13-.964.31-1.037.518-.943.648-.864.792-.677.85-.331.654-.209.756Zm-156.474 17.67.48-.512.334-.653.175-.769.01-.856-.158-.91-.317-.93-1.06-1.771-1.483-1.437-.832-.52-.85-.361-.836-.187-.789-.005-.712.175-.607.351-.48.512-.334.653-.175.769-.01.856.158.91.316.93 1.06 1.772 1.484 1.436.832.52.85.361.836.187.788.005.713-.175Zm205.498.116.595.319.697.141.772-.042.816-.222.831-.396.813-.554 1.448-1.489 1.032-1.803.309-.933.15-.908-.01-.847-.172-.753-.328-.63-.47-.485-.596-.32-.697-.14-.772.041-.816.223-.831.396-.813.553-1.449 1.49-1.031 1.802-.309.934-.152.908.011.847.173.753.328.63Zm-271.655 7.45 2.218-2.154 2.527-1.908 2.822-1.648 3.125-1.397 2.98-.95 2.665-.397h.029l5.486-.23 3.816.05 3.377.346 3.067.67 3.73 1.281 2.959 1.318 2.923 1.598 2.894 1.894 2.88 2.189 2.837 2.44 2.967 2.83 7.71 8.18 1.527 1.662 3.046 3.024 3.218 2.636 3.399 2.239 3.57 1.85 1.794.756 2.793.915 2.837.576 2.39.216 2.42-.008 2.455-.237 2.484-.475.497-.188.374-.288.252-.396.137-.504.1-.705-.1-.533-.547-.072-3.968.706-2.7.115-2.412-.295-2.354-.454-2.282-.62-2.225-.784-3.19-1.462-3.045-1.828-2.902-2.182-2.765-2.549-9.259-10.008-3.312-3.333-3.672-3.053-4.032-2.78-4.385-2.505-2.419-1.152-2.462-.972-2.499-.792-2.527-.605-2.268-.389-2.29-.244-4.672-.058-4.781.504-4.903 1.073-2.081.655-2.002.8-1.843.92-1.735 1.052-1.606 1.188-1.483 1.318-1.303 1.41-1.174 1.542-.151.23-.655.965-1.98 3.132-.62 1.346-.41 1.289-.007.08.065.1.13.065.107-.101 2.261-4.025 1.095-1.584Zm242.755 24.71-.086.036.036.086.137.158 1.101 1.232.85.676.813.375 1.066.28 3.125.382 3.276-.079 3.283-.526 3.362-.972 3.356-1.41 3.34-1.844 3.204-2.225 2.945-2.498 4.097-4.162.756-.842 5.083-5.573 3.694-3.73 3.506-3.103 3.571-2.671 1.67-1.094 3.817-2.124 3.967-1.707 2.34-.777 2.398-.648 2.448-.497 2.498-.367 2.794-.152 3.196.152 3.65.417 2.283.468 3.06 1.116 2.83 1.375 2.606 1.628 2.39 1.879 2.139 2.117 1.922 2.361 1.707 2.607 1.483 2.858.108.115.151-.05.151-.115.015-.008-.007-.021-1.62-3.55-1.966-3.197-2.354-2.887-2.679-2.498-1.634-1.231-1.735-1.102-1.822-.98-1.908-.842-1.994-.712-2.074-.584-2.153-.439-2.225-.31-3.65-.215-3.686.1-3.608.41-3.564.735-3.405 1.015-3.298 1.318-3.081 1.577-2.916 1.872-3.802 2.909-3.01 2.606-2.988 2.887-3.168 3.334-3.873 4.341-2.39 2.52-2.492 2.232-2.671 2.038-2.858 1.85-3.046 1.664-1.951.87-3.456 1.06-3.658.554-3.859.05-4.054-.46Zm-54.59-16.683 1.433-1.094 1-1.332.382-.857.238-.929.777-5.457.684-7.136-.065-.446-.324.31-3.124 5.104-3.046 3.572-1.613 1.476-2.066 1.346-5.53 3.391-.158.209.194.173 2.859.957 3.765.872 1.505.23 1.267.05 1.03-.13Zm-27.461-1.497.446-.072.101-.13-.05-.158-.043-.036-3.824-2.153-3.693-2.355-.72-.51-1.599-1.383-1.468-1.606-1.44-1.944-1.721-2.685-1.102-1.757-.417-.36-.245.49-.022.129.036 1.598.497 3.773.115 3.463.05 1.203.21 1.195.36 1.152.51 1.08.627.929.749.806.82.612.922.454 1.383.317 1.555-.05 3.758-.778 3.78-1.188Zm-147.362-9.764.108-.72-.058-.273-.28-.015-.54.339-.253.49-.05.662.252.511.547.187 3.276-.173.223-.043.317-.201.202-.324.028-.375-.136-.353-.879-.943-.943-.396-.137-.014-.533.122.288.475.9.836.08.093.014.367-.28.238-.88.08-.993-.16-.23-.143Zm311.788-.324-.763-.813-.864-.425-.576-.058-.612.087-1.339.626-.266.281-.13.36.043.389.202.324.122.108.749.432.785.223 1.159-.022 1.217-.424.453-.461Zm-295.468 2.504.041-.808-.417-.852-.812-.766-1.084-.564-1.19-.277-1.116.053-.871.376-.494.64-.041.807.417.85.812.768 1.084.564 1.19.277 1.116-.054.87-.375ZM514 293.594l-.267-.568-.367-.396-.921-.346-1.26.115-1.563.576-1.685.943-.216.238-.036.331.339 1.102.648.734.806.274 1.08-.087 1.275-.446 1.526-.8.367-.309.245-.41.094-.475Zm-53.558 2.92-.426-.541-.596-.416-.745-.274-.864-.122-.95.035-1 .19-1.996.811-1.738 1.275-.686.752-.528.792-.348.8-.157.778.042.725.237.646.426.54.596.416.745.275.864.121.95-.034 1-.19 1.996-.812 1.738-1.274.686-.753.527-.79.35-.8.156-.78-.042-.725Zm-173.286 5.57.249-.687.053-.762-.149-.81-.342-.823-.524-.808-.684-.76-.82-.682-.922-.58-.99-.454-1.02-.312-1.01-.157-.963.004-.877.164-.758.32-.61.46-.438.586-.25.687-.052.763.149.809.342.824.524.807.684.76.82.683.921.58.991.454 1.02.311 1.01.157.962-.004.877-.164.759-.32.61-.46Zm-66.722 26.013 1.195 1.116 1.052 1.188.921 1.253.785 1.332.878 2.023.598 2.174.202 2.859.014 5.659.13 5.011.208 1.894.303 1.497.698 2.24.828 2.051.958 1.865 1.094 1.678 1.836 2.34 1.951 2.181 2.11 2.06 2.16 1.821 2.225 1.599 2.203 1.332 2.29 1.116 2.217.82 4.068 1.052 4.04.604 4.003.159 3.967-.288 3.809-.713 3.744-1.138 3.686-1.562 3.607-1.994 2.859-1.937 2.62-2.124 2.376-2.311 2.139-2.506 2.484-3.65 2.045-3.996 1.605-4.328 1.174-4.672 2.793-13.292 1.203-4.312 1.526-4.097 1.858-3.881 2.181-3.672 2.708-3.7 3.081-3.457 3.463-3.204 3.838-2.959 3.276-2.124 4.212-2.426.547-.346.151-.216-.244-.08-.648.058-2.801.728-3.269 1.404-3.571 2.016-3.283 2.31-2.55 2.146-2.368 2.276-2.182 2.412-2.001 2.548-2.254 3.384-1.965 3.593-1.67 3.802-1.39 4.01-1.404 5.379-1.239 6.436-.936 4.73-1.166 4.256-1.39 3.78-1.613 3.298-2.138 3.39-2.39 3.032-2.643 2.678-2.887 2.333-3.434 2.124-3.723 1.714-4.025 1.296-4.32.878-3.564.353-3.448-.014-3.334-.396-3.226-.764-2.966-1.08-2.858-1.41-3.42-2.19-3.176-2.584-2.815-2.895-2.347-3.081-1.858-3.24-1.339-3.327-.828-3.449-.28-3.441.007-.713-.022-5.868-.158-1.735-.317-1.649-.483-1.562-.648-1.49-.936-1.592-1.152-1.483-1.36-1.375-1.57-1.268-.122-.036-.101.087-.101.18-.014.029Zm297.022-.223-.065-.08-.166.05-1.713 1.462-1.419 1.476-1.116 1.498-.82 1.52-.699 1.914-.504 2.11-.31 2.297-.115 2.491-.079 4.169-.173 2.325-.504 2.37-.734 2.303-.972 2.304-1.18 2.21-1.42 2.182-1.605 2.074-1.821 1.994-1.988 1.85-2.13 1.693-2.254 1.526-2.362 1.34-2.44 1.144-2.485.922-2.534.698-2.484.46-2.499.231-4.154-.065-4.046-.561-3.298-.85-3.233-1.202-3.153-1.548-3.09-1.894-2.102-1.533-1.95-1.656-1.808-1.772-1.656-1.893-1.966-2.693-1.706-2.909-1.447-3.117-1.188-3.327-1.087-4.205-1.188-6.076-1.685-8.244-.85-3.053-.965-2.722-1.065-2.47-1.21-2.455-2.786-4.665-3.204-4.299-1.728-1.965-1.829-1.865-1.865-1.692-1.951-1.57-1.98-1.396-2.052-1.26-2.038-1.066-2.095-.922-2.095-.734-2.146-.583-.432.014.18.396.886.749.144.08 4.442 2.52 4.198 2.987 3.902 3.406 3.557 3.787 3.089 4.025 2.642 4.291 2.132 4.464 1.548 4.5 1.483 6.127 2.325 10.8 1.239 4.63 1.706 4.334 2.189 4.104 2.606 3.744 3.017 3.391 3.384 2.974 3.708 2.527 3.996 2.052 2.463.965 2.541.792 2.614.605 2.678.41 2.707.223 2.758.022 2.729-.173 2.765-.367 3.225-.727 3.096-1.066 3.039-1.425 2.872-1.736 2.794-2.088 2.585-2.361 2.405-2.664 2.167-2.887 1.872-3.118 1.152-2.815.95-3.802.31-2.822.05-10.181.144-1.18.396-1.491 1.505-3.939 1.087-1.728 1.908-1.958.447-.425.014-.014Zm-15.248-29.116-.383-.356-.486-.247-1.208-.134-1.361.355-1.31.79-1.056 1.105-.643 1.251-.133 1.208.135.529.264.45.382.356.487.247 1.208.134 1.361-.355 1.31-.79 1.055-1.105.644-1.251.132-1.208-.134-.528Zm-260.258 5.125.216-.447.081-.517-.248-1.163-.756-1.186-1.148-1.028-1.366-.713-1.376-.29-1.176.177-.455.258-.343.36-.216.446-.081.517.248 1.163.756 1.186 1.148 1.028 1.366.713 1.376.29 1.176-.177.456-.258Zm10.822 14.65.426-.404.303-.542.171-.66.03-.753-.357-1.664-.861-1.664-1.235-1.41-1.42-.94-.711-.245-.677-.082-.616.085-.53.249-.426.403-.304.542-.17.66-.03.753.356 1.665.862 1.663 1.234 1.41 1.42.94.712.245.677.082.615-.085Zm236.222-1.33.893-1.037.655-1.144.526-1.728.093-1.923-.122-.468-.295-.381-.41-.252-.483-.072-1.512.237-1.31.576-.728.533-.648.662-.878 1.181-.576 1.059-.31 1.036-.007.93.202.748.41.763.641.691.662.31h.648l.778-.288.806-.562Zm-96.228 4.457.23.108.987.626.864.57 3.809 2.303 3.708 2.542 3.621 2.786 3.528 3.017 2.643 2.57 2.7 3.11 2.44 3.349 2.182 3.593 1.923 3.844 1 2.528.684 2.433.396 2.455.094 2.37-.194 2.411-.497 2.477-.792 2.44-1.102 2.506-1.39 2.55-1.727 2.692-5.156 6.883-3.492 4.543-2.052 2.996-1.785 3.088-1.52 3.176-1.26 3.261-.928 3.075-.706 3.153-.482 3.226-.267 3.297.036.123.123.043h.216l.043-.014.029-.044.936-4.521.713-2.57 1.93-4.558 1.634-3.269 1.807-3.182 1.98-3.104 2.16-3.016 3.16-4.076 3.953-5.126 2.672-3.86 1.75-2.85.964-1.872.943-2.607.67-2.606.381-2.6.108-2.591-.259-3.219-.684-3.211-1.116-3.211-1.548-3.197-1.814-3.096-1.88-2.808-1.943-2.527-2.01-2.24-3.52-3.297-4.01-3.125-4.508-2.959-4.99-2.794-.071-.036-3.629-1.555-1.8-.705-.1-.008-.008.008v.007l-.043.079Zm-50.652 1.49.562-.403h-.663l-1.13.324-5.666 3.01-3.723 2.253-3.456 2.484-3.197 2.73-2.944 2.958-2.038 2.384-1.894 2.52-1.742 2.65-1.598 2.786-.972 2.001-.8 2.03-.626 2.06-.446 2.088-.303 2.577-.05 2.614.201 2.664.468 2.707.605 2.131.915 2.254 1.224 2.383 1.533 2.499 3.341 4.65 5.14 6.553 2.607 3.55 2.556 4.103 2.491 4.659 2.441 5.205.526 1.455.54 2.095.511 2.06.245.525.151-.555.007-1.353-.237-1.771-.9-4.09-1.174-3.794-1.447-3.5-1.728-3.204-4.018-6.07-5.335-7.214-2.923-4.039-2.045-3.427-1.454-3.276-.915-3.269-.288-1.98-.115-2.08.065-2.117.252-2.232.698-3.204 1.123-3.176 1.563-3.153 1.987-3.132 2.974-3.931 3.038-3.492 3.096-3.053 3.168-2.614 5.753-4.219 3.297-2.21Zm43.589 12.615.238-.223.417-.144.432.064.353.26.194.396 1.217 5.652.36.993.598.62.813.244 1.044-.115 1.21-.317.994-.417.597-.627.195-.85-.195-1.058-.691-1.778-1.404-2.679-1.822-2.584-2.268-2.585-3.42-3.399-1.022-.986-.958-.648-.194.029-.08.18.015.05.418 1.303.259 1.282.108 1.274-.043 1.253-.36 1.843-.699 1.815-.316.302-.447.015-1.188-.526-1.814-1.26-1.678-1.224-.014-.014-.101-.036-.238.079-.057.245.338 2.29.05 3.016.058 1.073.216.885.389.756.526.555.705.396.807.18.943-.029.957-.238.965-.453.879-.627.705-.734.547-.857Zm-122.364-9.569-1.073-.065-.82.303-.62.77-.295 1.224.022 1.858.194.799.31.67.532.698.692.59 2.347 1.296 1.562.504 1.57.058 1.325-.418.453-.338.339-.44.208-.604.008-.72-.188-.778-.396-.878-1.072-1.584-1.318-1.267-1.742-1.037Zm213.679.966-.512-.494-.658-.349-.78-.188-.87-.02-.928.146-.951.31-1.822 1.051-1.487 1.488-.544.838-.383.859-.205.846-.02.8.166.727.345.622.512.494.658.349.78.188.87.02.928-.146.95-.31 1.822-1.051 1.488-1.488.545-.838.382-.859.205-.846.02-.8-.166-.727Zm-125.479 8.322.518.864 1.412 2.246 1.245 1.505 1.231.943 1.217.36.828-.05.72-.223.727-.468.598-.648.511-.886.389-1.008.295-1.253.173-1.44-.058-3.096-.136-.216-.26-.021-.064.036-3.327 2.477-.23.144-.634.15-.633-.122-.526-.388-.317-.57-.122-.41-.72-2.894-.08-1.138.101-.986.432-1.34.159-.453-.043-.23-.23-.015-.433.195-1.281.828-1.224.965-2.427 2.44-2.347 3.075-2.333 3.794-.518 1.39-.511 2.297.007.345.144.31.813.871.93.511 1.324.137 1.512-.41.288-.195.173-.295.576-2.549.626-2.8.44-1.016.532-.792.281-.173Zm17.446 7.891-2.477.209-2.722.612-2.945 1.015-2.822 1.296-1.166.62-3.73 1.922-2.909 1.332-2.65.993-2.411.663-2.168.317-1.908-.03-1.72-.395-1.404-.735-.814-.69-.72-.88-.878-1.59-.54-1.685-.216-1.735.086-1.815.389-1.958.684-1.959 1-2.001 1.246-1.894 1.411-1.692 2.297-2.44.029-.073-.036-.057-.13-.13-.021-.014-.029.007-2.866 2.08-2.26 2.089-1.721 2.167-1.239 2.282-.504 1.397-.367 1.49-.223 1.527-.08 1.627.202 2.484.62 2.182 1.036 1.922 1.397 1.555.958.728 1.051.59 1.145.454 1.224.31 1.267.158 1.332.021 2.815-.41 2.549-.756 2.7-1.044 2.916-1.34 3.931-2.023 3.96-2.023 1.52-.655 1.533-.504 1.54-.36 1.563-.194 1.275-.058 1.274.05 1.562.202 1.548.353 1.534.504 1.52.655 3.96 2.016 3.93 2.016 2.916 1.34 2.7 1.043 2.556.749 2.816.403 1.332-.014 1.26-.166 1.23-.31 1.146-.453 1.05-.598.958-.72 1.39-1.562 1.037-1.922.612-2.182.201-2.484-.079-1.627-.223-1.527-.374-1.49-.504-1.397-1.239-2.282-1.728-2.16-2.26-2.088-2.866-2.081-.029-.007-.022.014-.13.13-.035.057.029.072 2.296 2.441 1.419 1.692 1.245 1.894 1.001 2.001.684 1.959.396 1.951.087 1.814-.216 1.736-.54 1.692-.872 1.584-.72.878-.813.691-1.411.742-1.721.396-1.915.036-2.168-.317-2.412-.662-2.642-.994-2.909-1.325-3.722-1.915-1.174-.62-2.822-1.295-2.945-1.008-2.722-.605Zm-85.284-3.499.093-.331.245-.238.396-.151.994-.115 1.072.05 1.16.23 1.23.404.21-.022.108-.18-.008-.072-.108-.302-.648-.742-1.13-.504-1.54-.23-1.642.079-.8.194-.655.317-.561.454-.382.554-.245.972.151 1.059.512.993.856.922 1.037.763 1.044.547 1.044.331 1.044.116.8-.058.309-.122.223-.245.339-.9-.044-.814-.208-.46-.353-.404-1.095-.605-3.052-.936-.296-.208Zm170.395-.454.23.432-.216.44-.165.079-.85.216-1.548.432-1.066.439-.777.569-.403.64-.108.829.288 1.036.216.267.324.115 1.886-.115 1.778-.62.728-.46.612-.569.424-.605.281-.684.115-.677-.043-.734-.518-1.476-.274-.403-.936-.655-1.375-.274-1.771.151-.72.274-.605.403-.734.914-.08.346.36-.022 1.52-.432 1.454-.216 1.174.05Zm62.301 3.924.677-.244.447-.692.108-1.123-.008-.057-.13-.85-.287-.835-1.059-1.649-.007-.007h-.007l-.187-.007-.173.036h-.014l-.008.014-.77 1.793-.144.871.007.864.007.058.288 1.094.548.605Zm-294.717-.352.626.18.461-.454.418-1.21.028-1.152-.23-.777-.425-.749-.108-.122-.324-.202-.381-.043-.368.122-.273.274-.627 1.325-.086.612.058.576.417.856Zm-.455 14.891.33-.129.296-.286.442-1 .189-1.429-.092-1.642-.359-1.606-.571-1.323-.697-.84-.362-.197-.354-.034-.33.13-.297.286-.441 1-.19 1.428.092 1.643.36 1.605.57 1.324.697.84.363.196Zm294.965.656.389-.021.404-.195.795-.87.674-1.395.45-1.706.16-1.756-.156-1.541-.449-1.09-.314-.321-.357-.153-.39.02-.404.195-.794.872-.674 1.393-.45 1.706-.16 1.757.156 1.54.448 1.09.314.322Zm-8.484 15.755.47.206.55.052 1.254-.365 1.297-.932 1.142-1.358.815-1.576.362-1.556-.146-1.297-.259-.488-.371-.354-.47-.207-.55-.052-1.254.365-1.297.932-1.142 1.358-.815 1.576-.362 1.556.146 1.297.259.488Zm-277.306.324.347-.341.23-.482.086-1.306-.42-1.592-.862-1.633-1.172-1.428-1.304-1.005-1.238-.427-.534.026-.448.188-.347.34-.231.483-.086 1.306.42 1.592.862 1.633 1.172 1.428 1.305 1.004 1.237.428.534-.027Zm15.663 10.31.183-.531.026-.59-.415-1.26-.976-1.209-1.389-.97-1.59-.587-1.55-.113-1.271.38-.47.358-.332.453-.183.532-.026.59.415 1.26.976 1.209 1.389.97 1.59.587 1.55.113 1.271-.38.47-.358Zm250.83-2.862-.98.64-3.196 1.606-.93.504-.28.425.374.353 1.016.28 1.044.037 1.23-.209 1.218-.403 1.173-.576.886-.627.713-.741.432-.749.187-.82-.195-1.146-.475-.54-1.289-.46-.892-.065-.886.115-.922.302-.878.461-.893.663-.799.784-.713.915-.554.965-.05.223.093.23.194.252.036.029.036-.029.944-1.289 1.123-1.05 1.051-.685 1.166-.533.792-.194.432.122.072.447Zm-49.119-.166-.417.713-.152.699.116.799.388.763.648.742.958.784 1.217.756 1.425.699 1.57.59 1.368.353.785.05.698-.1.663-.274.532-.41.454-.648.238-.77.007-.858-.238-.907-.605-1.145-.835-1.087-1.022-.965-1.167-.792-1.13-.525-1.174-.288-1.094-.036-1.073.23-1.13.605Zm-166.773 6.416.676.237.75.08 1.828-.296 2.318-.943 2.542-1.483.972-.828.626-.98.202-.633.014-.346-.144-.352-.655-.85-.705-.691-.756-.519-.814-.36-1.289-.223-1.411.13-1.123.374-1.217.655-1.13.814-1.023.958-.713.892-.49.936-.2.843.078.82.59.994Zm101.368-4.896h.324l-.216-.245-.9-.151-.259.057.252.159Zm-119.85 8.748h.114l2.297-.31 2.29-.886.46-.345.339-.468.173-.555-.015-.576-.266-.943-.432-.792-.878-.921-1.116-.648-1.412-.41-1.526-.138-1.534.13-1.41.403-1.124.634-.886.914-.432.8-.28.935-.008.576.166.555.331.468.461.345 2.282.908 2.297.324Zm216.172-.23 1.138-.512.777-.842.26-.699.043-.756-.173-.842-.375-.821-.547-.742-.698-.626-.749-.44-.828-.266-1.397-.18-1.31.008-1.217.208-1.13.404-1.29.792-1.151 1.094-.44.684-.15.684.007.166.23.921.468.605.158.1 1.239.591 1.245.447 1.253.28 1.253.137 1.685-.065Z"/><path fill="#fff" d="m282.24 184.745.526 1.404.252 1.289-.123.316-.324.08-.108-.044-.749-.748-.259-1.001.202-1.26.266-.403ZM454.96 185.84l.145-1.016.216-.418.46-.086.533.08.202.129.036.245-.014.036-1.059 2.102-.194.18-.497.036-.28-.18.057-.338.31-.533ZM452.153 195.696l.31.18.251.266.072.353-.302 1.908-.511 1.231-.418.353-.216-.511-.014-1.706.324-1.858.18-.223.28-.015ZM285.422 200.167l-.172-.13-.022-.172-.202-2.635.08-.828.18-.317.158-.022.26.252.302.778.532 2.592.022.173-.086.158-.036.007ZM284.162 213.682l.044-.72.273-2.513.295-.828.375-.526.108-.079.389.007.223.324.1 1.455-.071 1.375-.252 1.289-.432 1.21-.317.36-.526.086-.093-.05-.173-.368Z"/><ellipse cx="2.25" cy=".69" fill="#fff" rx="2.25" ry=".69" transform="rotate(-31.3 630.086 -802.965) scale(.72)"/><path fill="#fff" d="m227.506 210.83-.641-.187-.454-.432-.072-.475.137-.288.31-.05.777.158.641.202.46.432.066.475-.13.288-.317.05ZM453.578 214.697l-.093.561-.173.224-.252-.123-.331-.453-.655-1.268-.368-1.152-.086-1.044.194-.936.13-.28.238-.353.252-.123.252.108.259.339.353.82.223 1.023ZM237.686 215.863l.108-.036.144.072.152.195 1.173 1.872.245.662-.05.331-.159.123-.331-.05-.562-.426-1.461-1.663-.144-.194-.015-.195.05-.057Z"/><ellipse cx="4.23" cy="1.11" fill="#fff" rx="4.23" ry="1.11" transform="rotate(89.6 29.263 255.42) scale(.72)"/><ellipse cx="4.6" cy="1.12" fill="#fff" rx="4.6" ry="1.12" transform="rotate(92.7 120.104 329.202) scale(.72)"/><ellipse cx="3.88" cy="1.13" fill="#fff" rx="3.88" ry="1.13" transform="rotate(112.2 170.461 279.336) scale(.72)"/><ellipse cx="3.4" cy="1.1" fill="#fff" rx="3.4" ry="1.1" transform="rotate(69.8 -39.614 289.544) scale(.72)"/><path fill="#fff" d="m284.666 241.243-.007-.597.144-.267.281.08.432.417.9 1.195.59 1.138.274 1.073-.036 1.008-.08.316-.186.41-.238.174-.28-.072-.332-.303-.518-.792-.41-1.03ZM452.023 241.186l.382-.454.266-.108.166.238.057.59-.086 1.476-.28 1.231-.476.98-.677.734-.259.187-.403.187-.288-.021-.173-.23-.05-.44.122-.929.338-1.037ZM248.458 248.227l-.094-1.641.108-2.088.108-2.412.029-.072.072-.03.23.008.26.08.165.222.367 1.505.195 1.563v1.62l-.173 1.684-.151.296-.317.1-.432-.187-.23-.259ZM488.7 248.285l-.252.554-.245.18-.23-.194-.216-.569-.31-1.498-.043-1.303.216-1.101.475-.915.209-.252.353-.295.288-.058.23.188.173.424.13.95-.065 1.124-.26 1.296ZM292.78 256.982v-.216l.058-.043.44-.259.532-.058.54.166.476.353 2.203 2.318.324.49.137.554-.08.526-.28.432-.058.05-.209-.007Z"/><rect width="2.16" height="9.12" fill="#fff" rx="1.04" ry="1.04" transform="rotate(44.8 -88.402 666.796) scale(.72)"/><ellipse cx="4.65" cy="1.24" fill="#fff" rx="4.65" ry="1.24" transform="rotate(111.8 154.81 296.282) scale(.72)"/><path fill="#fff" d="m250.315 262.49-.007-.05.065-.08.043-.014.67.036.741.519.713.929.562 1.195.108.28.33 1.275.058 1.166-.237.879-.497.46-.036.015-.13-.058ZM425.203 270.122l-1.08.519-.482-.015-.101-.079-.144-.612.252-.511 1.116-1.008 1.289-.857 1.461-.698 1.628-.547.453.093.187.418-.036.158-.41.655-.763.684-2.607 1.426ZM307.951 267.4l-.043-.15.029-.05.468-.469.698-.223.828.058.835.324 2.441 1.382.713.547.475.684.166.713-.159.64-.028.051-.152.043Z"/><ellipse cx="5.36" cy="1.55" fill="#fff" rx="5.36" ry="1.55" transform="rotate(46.7 -194.672 443.284) scale(.72)"/><path fill="#fff" d="m472.118 288.007-.115.007-.007-.007-.382-.684-.007-.914.367-1.015.692-.944 1.188-1.26.914-.741.986-.425.915-.043.705.345.008.116Z"/><ellipse cx="2.16" cy=".98" fill="#fff" rx="2.16" ry=".98" transform="rotate(-4.7 3824.055 -6205.054) scale(.72)"/><ellipse cx="2.88" cy="1.01" fill="#fff" rx="2.88" ry="1.01" transform="rotate(27.5 -485.647 607.6) scale(.72)"/><ellipse cx="2.68" cy=".85" fill="#fff" rx="2.68" ry=".85" transform="rotate(-24.5 932.761 -1024.743) scale(.72)"/><path fill="#fff" d="m456.56 297.252 1.209-.59.54.021.108.08.165.69-.28.57-1.246 1.137-1.44.965-1.627.799-1.829.62-.504-.102-.209-.468.036-.18.461-.741.85-.763 1.173-.735 1.735-.885Z"/><ellipse cx="5.99" cy="1.39" fill="#fff" rx="5.99" ry="1.39" transform="rotate(30.3 -406.946 664.674) scale(.72)"/><ellipse cx="3.81" cy="1.13" fill="#fff" rx="3.81" ry="1.13" transform="rotate(41.6 -274.32 462.142) scale(.72)"/><path fill="#fff" d="m497.138 303.797-.057.029-.072-.03-.022-.02-.288-.584.043-.778.375-.856.64-.807.21-.201.813-.634.864-.367.778-.036.576.288.021.021v.137Z"/><ellipse cx="4.67" cy="1.13" fill="#fff" rx="4.67" ry="1.13" transform="rotate(131.5 174.628 266.475) scale(.72)"/><ellipse cx="4.35" cy="1.38" fill="#fff" rx="4.35" ry="1.38" transform="rotate(50.7 -203.842 418.652) scale(.72)"/><ellipse cx="5.8" cy="1.36" fill="#fff" rx="5.8" ry="1.36" transform="rotate(-38.5 709.656 -504.133) scale(.72)"/><path fill="#fff" d="m266.702 332.222-.784-.482-2.65-1.829-.749-.813-.374-.756-.022-.173.245-.432.497-.05 1.699.763 1.498.921 1.296 1.059 1.087 1.216.223.57-.23.647-.108.072-.519-.029ZM222.502 339.61l.014 1.497-.194 1.296-.224.252-.33-.029-.087-.079-.454-.957.094-1.03.619-1.109.389-.288ZM515.462 341.705l.188-2.326.036-.093.108-.022.41.058.108.05.036.108-.086 1.325-.404 1.03-.194.1-.18-.115Z"/><ellipse cx="3.52" cy=".87" fill="#fff" rx="3.52" ry=".87" transform="rotate(77.7 -106.988 312.533) scale(.72)"/><ellipse cx="3.75" cy=".95" fill="#fff" rx="3.75" ry=".95" transform="rotate(104.3 122.394 376.829) scale(.72)"/><ellipse cx="4.39" cy="1.22" fill="#fff" rx="4.39" ry="1.22" transform="rotate(51.2 -269.84 420.542) scale(.72)"/><ellipse cx="4.29" cy="1.1" fill="#fff" rx="4.29" ry="1.1" transform="rotate(130.3 170.722 302.801) scale(.72)"/><ellipse cx="4.85" cy="1.23" fill="#fff" rx="4.85" ry="1.23" transform="rotate(33 -520.63 595.311) scale(.72)"/><path fill="#fff" d="m281.974 385.474-.044-.03v-.006l-.014-.8.389-.792.734-.67.972-.446 2.434-.712 1.051-.144.986.165.756.461.418.684v.007l-.022.043ZM454.22 385.394l-.944-.324-1.922-.69-1.31-.613-.98-.684-.576-.713-.065-.18.159-.51.51-.174 1.98.41 1.794.613 1.62.82 1.44 1.023.367.554-.087.735-.1.1-.555.087ZM259.034 388.663l-.028-.014v-.043l.352-.75.893-.597 1.296-.353 1.512-.05.418.029 1.483.259 1.246.518.799.713.245.792v.029l-.008.014-.021.008Z"/><ellipse cx="5.49" cy="1.68" fill="#fff" rx="5.49" ry="1.68" transform="rotate(.4 -55215.649 67621.526) scale(.72)"/><path fill="#fff" d="m267.365 409.442.331.382 1.13.749 2.088 1.339 1.57.828.778.324 2.527.842 2.57.598 2.679.353 2.721.093 2.772-.158 2.815-.425 2.808-.749 2.772-1.166 2.578-1.505 2.484-1.9 2.326-2.276 2.066-2.534 1.836-2.837 1.534-2.995.036-.058.187-.072.18.108 3.953 6.048 4.168 5.99.324.584.13.576-.086.813-.461.922-.785.922-1.138 1-2.224 1.664-2.355 1.57-2.505 1.468-2.636 1.382-2.656 1.167-2.73.921-2.886.713-2.93.483-3.118.266-3.125.036-3.19-.187-3.305-.41-3.196-.67-2.996-.958-2.793-1.253-2.6-1.548-2.735-2.13-.188-.174-3.297-3.117-1.123-1.282-.828-1.159-1.577-2.88-1.426-3.506-1.469-4.94-.115-.424.029-.274.209-.187.554-.08.749.296 3.32 2.333 3.362 2.138 3.384 1.93 3.427 1.728 2.966 1.144 3.211.756 3.442.368 3.686-.03 2.052-.23 1.944-.439 2.333-.828 2.297-1.173 2.138-1.47 2.081-1.806 1.987-2.117 1.894-2.434 1.843-2.808 1.764-3.125.223-.33.195-.102.31.512.374 1.41.065.757-.18.734-1.073 2.268-1.275 2.196-1.41 2.038-1.578 1.922-1.648 1.685-1.786 1.526-1.843 1.29-1.959 1.1-1.562.7-2.131.74-2.175.52-2.268.316-2.296.108-2.42-.1-2.426-.318-2.484-.525-2.47-.72-4.154-1.469-.036-.014-.742-.526-.424-.367-.368-.144Zm45.526-1.372-.355-.253-.448-.136-1.106.09-1.24.555-1.187.935-.952 1.174-.572 1.232-.106 1.105.13.45.248.358.354.252.449.137 1.105-.09 1.241-.555 1.187-.936.952-1.173.572-1.233.105-1.104-.13-.45Zm-47.384 4.605.039-.25-.18-.423-.872-1.093-1.093-.873-.423-.179-.25.039-.039.25.18.423.872 1.093 1.093.873.423.179Zm7.157 4.947-.158.108-.54-.08-.872-.676-.864-1.138-.05-.187.115-.151.144-.108.058-.05.072-.296-.18-.238-.015-.007-.712.015-.296.194-.144.338-.014.576.122.49.368.569.561.446 1.98.828.267.087.388.043.375-.137.273-.28.13-.368v-.194l-.13-.512-.626-.763-1.116-.554-.288-.015.108.267 1.066 1.433Zm20.318 1.648-.086.375.065.295.209.209.36.137 1.987.223 1.836-.151 1.332-.504.893-.828.403-1.052-.007-.33-.166-.332-.497-.511-.561-.353-.742-.245-.778-.043-.864.151-.842.324-.814.497-.72.626-.59.72Zm-7.144.504-.195-.579-.6-.508-.913-.36-1.089-.157-1.097.07-.94.285-.638.458-.24.561.194.58.6.507.913.36 1.089.157 1.097-.069.94-.286.638-.458ZM470.722 409.435l-.072-.151-.022-.014-.1.036-5.876 2.332-2.268.742-1.822.446-3.96.526-3.758.007-3.557-.504-3.348-1.022-2.865-1.361-2.693-1.786-2.527-2.203-2.37-2.62-1.374-2.254-2.499-4.745-.187-.828.23-.82.512-.894.403-.345.374.367 1.656 3.038 1.757 2.744 1.822 2.39 1.915 2.08 2.03 1.786 2.081 1.44 2.246 1.167 2.276.813 2.023.447 2.131.223 2.988.014 2.909-.252 2.815-.504 2.729-.77 2.75-1.073 2.664-1.36 4.507-2.722 5.71-3.701.583-.302.367.021.144.331-.064.648-.828 3.341-.93 2.837-1.08 2.491-1.26 2.232-1.691 2.326-2.095 2.26-1.721 1.556-1.764 1.375-1.872 1.238-1.915 1.073-2.362 1.073-2.434.85-2.592.662-2.656.446-2.823.267-3.031.079-3.168-.115-3.391-.303-2.455-.381-2.384-.583-2.361-.778-2.427-1.008-2.397-1.202-2.455-1.44-2.427-1.635-2.462-1.85-1.728-1.52-.922-1.173-.223-.778.065-.338.425-1.246.72-1.173 3.37-4.867 2.937-5.22.295-.432.302-.152.303.137.317.418 2.642 4.219 2.628 3.326 1.426 1.462 1.425 1.267 1.505 1.138 1.627 1.037 2.427 1.216 1.764.684 1.792.54 1.88.404 1.922.259 1.951.108 1.995-.036 4.168-.483 3.903-.979 3.441-1.404 1.527-.857 1.433-.972 1.332-.662.057-.036Zm-40.44 4.335.243-.33.127-.432-.108-1.105-.57-1.279-.944-1.258-1.175-1.046-1.226-.674-1.092-.2-.442.09-.349.214-.242.33-.127.432.108 1.105.57 1.279.944 1.258 1.174 1.046 1.227.674 1.092.2.442-.09Zm42.722-2.304.986-.872.77-.288.16-.093-.015-.238-.166-.18-.252-.014-.597.273-.634.468-1.346 1.498-.094.28.266.152.756.022.648-.195.447-.331.367-.49.022-.05-.188-.18-.086.029-.497.432-.13.115-.18-.036-.194-.115-.072-.087Zm-8.006 4.96.835-.648.05-.072-.021-.079-.13-.201-.05-.044-.087.022-1.728 1.152-.209.266.065.324.475.656.54.324.684-.008.879-.288.698-.374.468-.418.274-.532.036-.476-.137-.547-.346-.439-.33-.108-.354.058.18.302.468.742-.014.302-.194.245-1.541.893-.77.079-.346-.144.079-.382Zm-19.99 3.19-.053-.828-.604-.873-1.064-.786-1.362-.578-1.452-.282-1.322.056-.99.386-.507.658.053.828.605.874 1.064.785 1.362.578 1.452.283 1.321-.056.99-.387Zm9.895-.612.778.46.23.397-.31.345-.849.288-1.08.144-1.31-.021-.173.043.036.187.115.202.036.036.05.014h3.615l.389-.072.338-.216.23-.324.101-.381-.043-.598-.202-.468-.54-.468-.727-.238-.965-.057-1.101.144-.67.223-.295.31-.08.475.094.259.296.058.49-.173 1.058-.475Z"/><ellipse cx="3.32" cy=".98" fill="#fff" rx="3.32" ry=".98" transform="rotate(-34 826.19 -298.179) scale(.72)"/><path fill="#fff" d="m426.06 408.96.115-.072.173.043.511.418 1.275 1.274.302.49.007.302-.122.144-.295.05-.54-.201-1.498-1-.504-.418-.029-.296ZM343.094 472.795l2.614 1.512.043.245-.029.022-2.714 1.886-2.786 1.72-2.859 1.563-2.93 1.39-4.241 1.677-4.392 1.347-3.449.792-3.434.554-3.442.303-3.427.057-2.974-.144-2.966-.324-2.96-.511-2.958-.698-3.125-.95-3.01-1.146-2.88-1.346-2.757-1.555-3.147-2.124-2.966-2.412-2.794-2.7-2.613-2.988-1.88-2.635-1.54-2.823-1.152-2.887-.75-2.96-.309-2.822.123-2.793.561-2.664.972-2.412.972-1.642 1.217-1.555 1.418-1.404 1.656-1.296 1.8-1.037 1.757-.597 1.685-.123 1.454.36 1.232.814.979 1.188.007.014.238.59.064.656-.36 1.62-.986 1.987-1.678 2.498-.093.123-.756 1.202-.547 1.181-.353 1.231-.144 1.21.187 1.872.634 1.821 1.087 1.85 1.577 1.93 2.527 2.384 2.779 1.965 3.168 1.627 3.442 1.174 3.715.727 3.981.281 3.788-.13 3.52-.49 3.248-.863 2.988-1.231 3.16-1.8 2.744-2.06 2.318-2.325 1.9-2.585.865-1.534.734-1.605.605-1.685.482-1.764.584-3.766.072-4.082-.245-2.88-.475-2.628-.022-1.246.504-1.13 2.894-3.931 2.052-3.031 1.836-3.29 1.664-3.622 1.504-4.004.166-.33.216-.152.266.022.317.194.627.914 2.75 5.436 1.166 2.34.504 1.34.461 1.21.576.669.44.223.568.115 1.411-.122.742-.007.691.273 1.267 1.023.95 1.18.678 1.419.36 1.512.057 1.692-.245 1.713-.576 1.844-.85 1.75-1.072 1.583-1.253 1.347-.201.54.324.468.201.064 3.658.526.13.022.561.266.41.468.188.598-.072.619-1.073 2.577-1.49 2.47-1.901 2.347-2.312 2.232-.1.18.136.166 3.514 2.03.036.022.187.31-.108.345-1.353 1.75-1.088 1.972-1.044 1.858-1.18 1.454-1.095.965-1.368.9-4.349 2.088-.014.007-.223.202Zm-55.036-1.598-2.83-2.283-2.8-2.606-2.326-2.916-1.044-1.67-.785-1.628-.648-1.893-.447-1.995-.208-1.922.028-1.814.245-1.592.468-1.425.706-1.282.007-.014-.043-.072-.288-.043-.137.014-.1.108-.692 1.483-.482 1.476-.274 1.469-.058 1.462.324 2.26 1.275 4.335.533 1.339.468.792 2.62 3.182 1.728 1.944 1.836 1.692 1.937 1.448 2.038 1.188 1.577.936 2.332 1.303.03.007.086-.058h.007l-.029-.13-4.046-2.656-.504-.187-.245-.087Zm5.781 3.665.151.1.267-.072-.159-.244-.201.021-.115.072ZM442.332 419.22l-.18.115-.706-.173-2.188-.712-.634-.353-.187-.274.036-.137.288-.15.727-.015 2.268.381.706.173.079.05.029.13Z"/><ellipse cx="2.97" cy="1.04" fill="#fff" rx="2.97" ry="1.04" transform="rotate(-11.1 2297.992 -1305.979) scale(.72)"/><ellipse cx="2.48" cy="1.04" fill="#fff" rx="2.48" ry="1.04" transform="rotate(2.6 -9091.99 6409.287) scale(.72)"/><path fill="#fff" d="m454.529 450.511-.907-1.433-2.088-2.786-1.282-2.844-.065-.331.094-.353.662-1.152.742-.914.82-.692.908-.453.806-.202.864-.043 1.887.374 1.728.728 1.555.936 1.613 1.332 1.36 1.555 1.16 1.807.885 1.958.62 2.139.338 2.225.043 2.268-.252 2.275-.526 2.347-.727 2.275-.957 2.261-1.152 2.182-1.354 2.116-1.54 2.024-1.75 1.972-1.923 1.872-2.073 1.779-2.16 1.634-2.232 1.498-2.304 1.353-4.328 2.074-4.572 1.613-4.816 1.159-5.07.713-2.951.144-3.089-.115-3.34-.353-4.256-.67-3.067-.633-2.938-.821-2.901-1.03-2.686-1.173-2.52-1.347-2.254-1.461-2.088-1.635-1.792-1.72-.303-.44-.151-.511.007-.533.166-.511 1.663-3.47 1.447-3.47 1.231-3.471 1.016-3.478.799-3.477.59-3.485.375-3.485.15-3.492-.057-3.564-.288-3.564-.504-3.571-.734-3.571-.166-.972.108-.404.375.173.648.756 2.368 2.823 3.032 3.052.122.13.331.8-.057 1.13-.454 2.786-.288 2.7-.108 2.534.065 2.37.237 2.26.41 2.038.606 1.958.756 1.714 1.166 2.008 1.34 1.83 1.403 1.569 1.534 1.411 1.699 1.303 1.807 1.138 1.98 1.008 2.067.85 2.21.69 2.268.526 2.354.353 2.384.18 2.462.007 2.455-.165 2.427-.346 2.383-.518 2.311-.684 2.232-.85 2.282-1.18 2.196-1.52 2.016-1.8 1.685-1.944 1.253-1.973.828-1.958.403-2.009-.043-1.915-.223-1.109Zm4.939-1.598 1.008 2.347.122.08.015-.015.072-.094.007-.18-.857-2.325-1.36-2.074-.145-.1h-.122l-.014.006-.015.144Zm1.462 5.925.093.188.13-.159.245-.82-.065-.72-.108-.238-.23-.245-.13.31-.043.655Zm-6.43 13.328.007.007.007-.007 3.406-4.472 1.13-1.677.72-1.404.57-1.49.431-1.57.281-1.656-.022-.115-.108-.072h-.057l-.108.13-.533 1.814-.468 1.634-.518 1.253-1.001 1.836-1.152 1.807-2.787 3.55-.064.158.093.137Zm-8.676 5.464-.31.087-.979.41-.525.245-.015.014.007.015.03.014.042.022h.015l1.663-.396.886-.403 2.224-1.426 1.426-.85 1.008-.784 1.051-.821 1.375-.835.008-.015-.116-.173-.072-.057-.093.021-7.02 4.673-.367.187Zm-2.477.93-.28.1-.137.209.244.079.116-.022.187-.187.007-.029Z"/></svg>