<?xml version="1.0" encoding="UTF-8" standalone="no"?>
<!DOCTYPE svg PUBLIC "-//W3C//DTD SVG 1.1//EN" "http://www.w3.org/Graphics/SVG/1.1/DTD/svg11.dtd">
<svg xmlns="http://www.w3.org/2000/svg" version="1.1" viewBox="0.00 0.00 1024.00 1024.00">
<path fill="#ffffff" d="
  M 572.45 296.89
  L 572.59 296.95
  L 572.88 297.40
  L 572.70 297.91
  L 551.73 318.73
  L 547.94 322.65
  L 544.73 326.26
  L 542.03 329.64
  L 539.72 332.95
  L 537.74 336.28
  L 536.14 339.56
  L 534.83 342.98
  L 533.88 346.35
  L 533.23 349.91
  L 532.87 354.97
  L 533.20 359.66
  L 534.21 363.99
  L 535.89 367.95
  L 535.89 367.95
  L 535.89 367.95
  L 537.20 370.10
  L 538.74 372.12
  L 540.52 374.03
  L 542.53 375.80
  L 546.09 378.31
  L 551.63 381.58
  L 557.29 384.94
  L 562.19 388.40
  L 566.63 392.15
  L 570.61 396.18
  L 574.14 400.49
  L 574.19 400.56
  L 575.02 400.95
  L 575.86 400.61
  L 587.40 389.19
  L 591.84 384.46
  L 593.25 382.55
  L 594.13 380.95
  L 594.81 379.03
  L 595.22 377.18
  L 595.36 375.30
  L 595.23 373.50
  L 594.82 371.72
  L 594.15 370.03
  L 593.20 368.33
  L 591.99 366.72
  L 590.47 365.11
  L 588.73 363.60
  L 584.46 360.75
  L 579.87 358.39
  L 574.88 356.31
  L 569.20 354.36
  L 561.08 351.97
  L 560.47 351.79
  L 560.47 351.79
  L 559.81 351.26
  L 559.72 350.43
  L 560.57 347.99
  L 561.65 345.80
  L 562.96 343.87
  L 564.51 342.18
  L 565.60 341.44
  L 566.94 340.97
  L 568.54 340.75
  L 570.51 340.77
  L 572.77 341.04
  L 575.27 341.56
  L 580.94 343.34
  L 587.70 346.20
  L 594.37 349.64
  L 600.96 353.67
  L 607.46 358.28
  L 610.09 359.87
  L 612.89 360.75
  L 614.49 360.91
  L 616.07 360.85
  L 619.40 360.09
  L 623.04 358.43
  L 627.09 355.83
  L 635.66 349.87
  L 642.74 345.25
  L 646.10 343.36
  L 649.34 341.92
  L 649.50 341.90
  L 649.80 342.09
  L 649.80 342.46
  L 647.84 345.35
  L 637.47 357.65
  L 630.16 366.93
  L 628.49 369.76
  L 627.04 373.23
  L 626.29 376.15
  L 626.22 378.47
  L 627.11 382.52
  L 628.47 385.80
  L 631.08 390.87
  L 634.54 398.14
  L 635.84 401.32
  L 636.85 404.71
  L 637.51 408.13
  L 637.86 411.63
  L 637.90 415.35
  L 637.62 419.13
  L 637.01 423.09
  L 636.10 427.10
  L 634.87 431.25
  L 634.30 432.19
  L 633.36 432.79
  L 632.51 433.05
  L 630.79 433.35
  L 628.99 433.38
  L 627.11 433.14
  L 625.17 432.62
  L 624.67 432.35
  L 624.30 431.92
  L 623.32 429.76
  L 623.15 428.82
  L 623.19 427.98
  L 623.71 424.44
  L 623.94 420.93
  L 623.89 417.47
  L 623.55 414.04
  L 623.55 414.04
  L 623.55 414.04
  L 623.55 414.04
  L 622.90 410.51
  L 621.93 407.02
  L 620.66 403.58
  L 619.07 400.18
  L 617.48 397.56
  L 615.65 395.39
  L 613.54 393.61
  L 611.23 392.29
  L 609.37 391.58
  L 607.43 391.13
  L 605.42 390.94
  L 603.36 390.99
  L 601.21 391.29
  L 599.03 391.84
  L 596.84 392.63
  L 594.65 393.66
  L 577.24 403.54
  L 577.24 403.54
  L 576.96 403.90
  L 577.02 404.35
  L 579.91 409.66
  L 582.43 415.03
  L 584.53 420.50
  L 586.08 426.00
  L 587.10 431.51
  L 587.57 437.05
  L 587.57 437.05
  L 587.51 442.51
  L 586.93 447.99
  L 585.83 453.48
  L 584.21 459.00
  L 584.17 459.30
  L 584.56 459.99
  L 585.35 460.07
  L 589.15 458.74
  L 592.95 457.79
  L 596.75 457.19
  L 600.56 456.97
  L 605.93 457.27
  L 608.80 457.73
  L 611.59 458.39
  L 616.75 460.21
  L 621.72 462.80
  L 626.32 466.06
  L 630.46 469.90
  L 634.18 474.38
  L 637.33 479.33
  L 639.87 484.68
  L 641.76 490.36
  L 642.65 494.78
  L 643.13 499.87
  L 643.26 505.70
  L 643.03 513.26
  L 642.78 513.81
  L 642.23 514.03
  L 620.84 514.03
  L 620.75 514.03
  L 620.02 513.84
  L 619.43 513.38
  L 619.07 512.73
  L 618.99 511.98
  L 619.82 503.85
  L 619.79 502.78
  L 619.38 499.88
  L 618.60 495.20
  L 617.54 492.16
  L 617.42 491.92
  L 615.93 489.44
  L 614.14 487.26
  L 612.02 485.35
  L 609.66 483.80
  L 606.15 482.30
  L 602.38 481.53
  L 598.54 481.54
  L 594.64 482.32
  L 594.38 482.40
  L 591.52 483.66
  L 588.82 485.55
  L 586.42 487.97
  L 584.25 490.96
  L 582.32 494.56
  L 580.73 498.59
  L 579.51 503.02
  L 578.76 507.50
  L 578.59 508.06
  L 578.23 508.52
  L 577.73 508.82
  L 577.16 508.93
  L 571.23 509.08
  L 566.82 509.58
  L 562.98 510.55
  L 559.55 512.04
  L 556.63 513.97
  L 553.97 516.40
  L 552.22 518.49
  L 550.89 520.64
  L 549.99 522.83
  L 549.51 525.08
  L 549.51 525.08
  L 549.51 525.08
  L 549.44 527.18
  L 549.73 529.32
  L 550.37 531.50
  L 551.37 533.73
  L 552.10 534.75
  L 553.10 535.60
  L 554.35 536.30
  L 555.99 536.93
  L 560.06 537.75
  L 565.25 538.02
  L 655.75 538.00
  L 655.90 538.00
  L 661.30 537.92
  L 665.09 537.60
  L 668.37 536.96
  L 671.21 535.95
  L 673.44 534.81
  L 675.44 533.53
  L 677.29 532.06
  L 678.91 530.46
  L 680.67 528.24
  L 682.12 525.85
  L 683.31 523.22
  L 684.28 520.25
  L 685.01 517.05
  L 685.51 513.51
  L 685.81 509.52
  L 685.92 504.99
  L 686.02 443.07
  L 685.90 392.49
  L 686.17 381.64
  L 687.12 372.03
  L 687.64 368.64
  L 688.71 364.11
  L 690.41 359.51
  L 692.67 355.04
  L 695.41 350.82
  L 698.70 346.75
  L 702.37 343.08
  L 706.33 339.86
  L 710.52 337.16
  L 713.58 335.56
  L 716.67 334.18
  L 719.78 333.04
  L 722.91 332.13
  L 726.11 331.44
  L 729.31 330.98
  L 732.51 330.75
  L 735.71 330.76
  L 739.38 331.06
  L 743.02 331.66
  L 746.62 332.57
  L 750.18 333.78
  L 753.63 335.27
  L 757.02 337.05
  L 760.33 339.12
  L 763.56 341.48
  L 767.52 345.05
  L 771.10 349.27
  L 774.14 353.97
  L 776.58 359.03
  L 778.41 364.41
  L 779.58 369.96
  L 780.04 375.49
  L 779.80 381.01
  L 779.05 385.76
  L 777.86 390.32
  L 776.22 394.75
  L 774.15 398.93
  L 771.69 402.82
  L 768.85 406.41
  L 765.65 409.65
  L 762.11 412.54
  L 757.66 415.36
  L 752.81 417.63
  L 747.71 419.28
  L 742.29 420.32
  L 734.64 421.07
  L 727.56 421.23
  L 727.12 421.04
  L 726.94 420.61
  L 726.94 398.05
  L 726.94 398.03
  L 727.27 397.27
  L 728.05 396.98
  L 733.46 397.05
  L 737.52 396.83
  L 739.86 396.47
  L 742.09 395.90
  L 744.19 395.13
  L 746.15 394.17
  L 748.01 393.00
  L 749.71 391.66
  L 751.23 390.14
  L 752.56 388.46
  L 754.18 385.71
  L 755.32 382.65
  L 755.96 379.43
  L 756.09 375.99
  L 755.83 373.30
  L 755.28 370.76
  L 754.42 368.29
  L 753.28 366.00
  L 750.98 362.78
  L 748.15 360.07
  L 744.79 357.87
  L 741.07 356.31
  L 737.13 355.42
  L 733.02 355.23
  L 728.89 355.77
  L 724.98 356.99
  L 722.80 358.00
  L 720.80 359.17
  L 718.96 360.52
  L 717.30 362.03
  L 717.30 362.03
  L 717.30 362.03
  L 715.21 364.49
  L 713.48 367.30
  L 712.09 370.45
  L 711.06 373.95
  L 710.61 376.56
  L 710.29 379.99
  L 710.03 389.25
  L 709.97 498.00
  L 709.79 505.84
  L 709.30 514.04
  L 708.84 518.77
  L 708.24 522.95
  L 707.49 526.60
  L 706.60 529.71
  L 705.57 532.42
  L 704.34 535.08
  L 702.87 537.77
  L 701.22 540.37
  L 697.39 545.32
  L 692.95 549.82
  L 688.03 553.74
  L 682.70 557.03
  L 679.94 558.40
  L 677.12 559.57
  L 674.33 560.51
  L 671.51 561.26
  L 665.26 562.22
  L 656.75 562.78
  L 647.91 562.88
  L 637.33 562.56
  L 626.51 562.36
  L 612.31 562.67
  L 607.00 562.82
  L 602.21 562.71
  L 595.99 562.60
  L 593.45 562.69
  L 581.18 563.04
  L 572.63 563.07
  L 565.00 562.78
  L 557.73 562.14
  L 556.03 561.93
  L 552.52 561.28
  L 549.84 560.51
  L 547.27 559.53
  L 544.68 558.29
  L 542.19 556.85
  L 537.18 553.23
  L 531.84 548.36
  L 530.98 548.03
  L 530.15 548.43
  L 530.15 548.43
  L 530.10 548.49
  L 512.79 571.72
  L 512.51 571.86
  L 512.23 571.72
  L 495.47 550.02
  L 494.53 548.99
  L 493.47 548.13
  L 493.47 548.13
  L 493.40 548.08
  L 492.93 547.97
  L 492.50 548.20
  L 488.52 552.27
  L 484.10 555.71
  L 484.10 555.71
  L 484.10 555.71
  L 481.26 557.45
  L 478.26 558.97
  L 475.11 560.25
  L 471.80 561.31
  L 467.67 562.17
  L 462.77 562.68
  L 457.04 562.86
  L 450.03 562.71
  L 430.91 562.04
  L 420.75 561.95
  L 396.63 562.68
  L 376.30 563.09
  L 369.40 562.94
  L 359.76 562.31
  L 356.02 561.87
  L 352.41 561.15
  L 348.91 560.16
  L 345.54 558.88
  L 345.54 558.88
  L 345.54 558.88
  L 342.37 557.36
  L 339.32 555.58
  L 336.38 553.53
  L 333.55 551.22
  L 329.17 546.94
  L 325.41 542.41
  L 322.27 537.60
  L 319.75 532.54
  L 319.75 532.54
  L 319.75 532.54
  L 318.01 527.74
  L 316.77 522.72
  L 316.04 517.49
  L 315.81 512.05
  L 315.90 498.65
  L 315.97 480.04
  L 315.73 465.76
  L 315.67 463.99
  L 315.16 444.73
  L 314.99 427.51
  L 314.80 424.37
  L 314.22 421.49
  L 313.25 418.89
  L 311.91 416.55
  L 311.91 416.55
  L 311.91 416.55
  L 311.91 416.55
  L 310.28 414.60
  L 308.30 412.88
  L 305.98 411.41
  L 303.32 410.18
  L 303.26 410.16
  L 302.42 410.23
  L 301.90 410.90
  L 299.74 417.78
  L 297.16 423.71
  L 295.73 426.32
  L 294.13 428.80
  L 292.41 431.08
  L 290.52 433.25
  L 287.06 436.48
  L 283.22 439.28
  L 280.68 440.75
  L 277.99 441.97
  L 275.19 442.92
  L 272.30 443.59
  L 269.37 443.97
  L 266.40 444.06
  L 263.52 443.85
  L 260.67 443.35
  L 257.01 442.31
  L 253.61 440.95
  L 250.48 439.25
  L 247.61 437.23
  L 247.61 437.23
  L 247.61 437.23
  L 244.64 434.50
  L 242.01 431.34
  L 239.73 427.75
  L 237.80 423.72
  L 237.02 421.24
  L 236.78 418.78
  L 236.98 418.29
  L 237.47 418.08
  L 249.74 417.94
  L 263.21 418.20
  L 264.00 418.25
  L 266.54 418.65
  L 267.84 418.90
  L 268.80 418.84
  L 268.88 418.82
  L 268.88 418.82
  L 270.41 418.05
  L 271.78 416.77
  L 277.06 410.10
  L 277.14 409.72
  L 276.91 409.42
  L 276.83 409.39
  L 273.88 408.96
  L 269.58 409.06
  L 267.20 409.16
  L 263.81 409.10
  L 260.57 408.81
  L 257.47 408.31
  L 254.52 407.59
  L 251.78 406.66
  L 249.18 405.51
  L 246.73 404.13
  L 244.45 402.54
  L 242.56 400.94
  L 240.80 399.16
  L 239.17 397.21
  L 237.67 395.07
  L 235.12 390.35
  L 233.09 384.91
  L 233.17 384.34
  L 233.65 384.03
  L 233.65 384.03
  L 233.75 384.02
  L 281.56 383.84
  L 289.90 383.85
  L 296.65 384.03
  L 301.81 384.40
  L 305.37 384.94
  L 308.34 385.73
  L 311.23 386.74
  L 314.05 387.95
  L 316.78 389.35
  L 319.45 390.96
  L 322.00 392.75
  L 324.43 394.70
  L 326.71 396.82
  L 328.82 399.07
  L 330.76 401.45
  L 332.54 403.97
  L 334.13 406.60
  L 335.51 409.31
  L 336.68 412.12
  L 337.62 414.93
  L 338.35 417.81
  L 338.74 420.73
  L 339.00 425.25
  L 339.13 439.10
  L 339.04 502.50
  L 339.35 511.81
  L 339.75 515.39
  L 340.35 518.63
  L 341.19 521.62
  L 342.24 524.30
  L 343.58 526.85
  L 345.13 529.09
  L 346.19 530.34
  L 348.24 532.37
  L 350.42 534.09
  L 352.71 535.48
  L 355.12 536.55
  L 355.12 536.55
  L 355.12 536.55
  L 357.47 537.26
  L 361.84 537.86
  L 368.25 538.07
  L 460.25 537.92
  L 465.70 537.76
  L 468.72 537.28
  L 471.23 536.05
  L 473.13 534.32
  L 473.13 534.32
  L 473.13 534.32
  L 473.98 533.02
  L 474.61 531.54
  L 475.01 529.88
  L 475.18 528.04
  L 475.07 524.90
  L 474.54 522.12
  L 473.60 519.71
  L 472.25 517.65
  L 470.55 515.78
  L 468.73 514.16
  L 466.79 512.78
  L 464.74 511.65
  L 464.74 511.65
  L 464.74 511.65
  L 462.45 510.72
  L 460.03 510.06
  L 456.90 509.50
  L 453.72 509.15
  L 450.48 509.00
  L 447.19 509.05
  L 446.44 508.79
  L 446.08 508.08
  L 445.38 502.92
  L 444.39 498.53
  L 443.11 494.80
  L 441.52 491.77
  L 439.73 489.33
  L 437.65 487.09
  L 435.41 485.18
  L 432.97 483.58
  L 430.54 482.41
  L 427.99 481.61
  L 425.48 481.22
  L 422.90 481.23
  L 420.57 481.62
  L 418.22 482.39
  L 415.80 483.55
  L 413.64 484.92
  L 411.75 486.50
  L 410.13 488.30
  L 410.13 488.30
  L 408.38 491.03
  L 407.10 494.14
  L 406.31 497.63
  L 406.00 501.50
  L 405.83 512.43
  L 405.70 513.05
  L 405.34 513.58
  L 404.80 513.93
  L 404.18 514.05
  L 383.57 514.05
  L 383.02 513.86
  L 382.71 513.37
  L 382.19 510.47
  L 381.92 507.24
  L 381.91 503.67
  L 382.16 499.76
  L 382.93 494.19
  L 384.21 488.78
  L 385.95 483.70
  L 388.19 478.90
  L 390.81 474.60
  L 393.88 470.65
  L 397.38 467.15
  L 401.17 464.21
  L 404.47 462.20
  L 409.85 459.73
  L 412.61 458.78
  L 415.41 458.04
  L 415.41 458.04
  L 415.41 458.04
  L 418.83 457.40
  L 422.31 457.05
  L 425.86 456.97
  L 429.47 457.18
  L 431.60 457.52
  L 434.25 458.18
  L 441.15 460.46
  L 441.24 460.48
  L 441.47 460.36
  L 441.51 460.11
  L 439.49 453.01
  L 438.24 445.99
  L 437.78 439.05
  L 438.09 432.19
  L 438.09 432.19
  L 438.09 432.19
  L 438.09 432.19
  L 438.57 428.60
  L 439.27 425.04
  L 440.18 421.50
  L 441.30 417.98
  L 442.65 414.49
  L 444.21 411.02
  L 445.99 407.57
  L 447.98 404.14
  L 448.03 403.83
  L 447.84 403.57
  L 447.84 403.57
  L 444.98 401.84
  L 438.41 397.93
  L 433.50 395.30
  L 428.91 393.22
  L 424.53 391.67
  L 422.21 391.13
  L 419.99 390.92
  L 417.80 391.04
  L 415.73 391.47
  L 414.04 392.10
  L 412.45 392.95
  L 410.88 394.06
  L 409.43 395.39
  L 408.07 396.94
  L 406.84 398.68
  L 404.78 402.65
  L 402.53 408.82
  L 401.85 411.45
  L 401.47 413.79
  L 400.97 421.50
  L 400.90 431.14
  L 400.80 431.72
  L 400.51 432.23
  L 400.06 432.60
  L 399.51 432.80
  L 395.39 433.15
  L 395.39 433.15
  L 392.90 433.08
  L 390.41 432.79
  L 389.65 432.42
  L 389.22 431.70
  L 388.12 426.70
  L 387.35 421.84
  L 386.93 417.11
  L 386.84 412.52
  L 387.01 409.77
  L 387.42 407.06
  L 388.06 404.27
  L 388.96 401.31
  L 391.50 394.92
  L 395.83 385.99
  L 397.06 383.55
  L 398.30 380.27
  L 398.62 378.59
  L 398.72 376.94
  L 398.42 374.12
  L 397.46 371.19
  L 395.90 368.29
  L 393.70 365.29
  L 378.49 347.26
  L 376.52 344.62
  L 374.86 341.68
  L 374.87 341.33
  L 375.18 341.14
  L 375.33 341.17
  L 378.13 342.69
  L 386.47 348.45
  L 397.24 356.23
  L 399.26 357.58
  L 401.37 358.74
  L 403.59 359.72
  L 405.72 360.43
  L 407.80 360.89
  L 409.69 361.08
  L 411.49 361.02
  L 413.24 360.68
  L 415.83 359.42
  L 419.83 356.70
  L 427.32 351.66
  L 434.95 347.42
  L 442.62 344.04
  L 446.47 342.66
  L 450.40 341.48
  L 453.33 340.89
  L 455.95 340.79
  L 458.28 341.19
  L 460.30 342.08
  L 460.30 342.08
  L 460.30 342.08
  L 460.30 342.08
  L 461.93 343.38
  L 463.29 345.12
  L 464.39 347.30
  L 465.21 349.92
  L 465.24 350.54
  L 465.03 351.12
  L 464.61 351.57
  L 464.05 351.83
  L 464.04 351.83
  L 454.97 354.24
  L 447.25 356.94
  L 444.38 358.29
  L 441.28 360.11
  L 437.96 362.40
  L 434.42 365.16
  L 432.02 367.54
  L 430.31 370.09
  L 429.27 372.87
  L 429.00 375.61
  L 429.20 377.21
  L 429.66 378.82
  L 431.37 382.34
  L 433.88 386.00
  L 437.16 389.77
  L 440.82 393.18
  L 449.47 400.83
  L 450.14 401.06
  L 450.76 400.74
  L 450.76 400.74
  L 450.80 400.69
  L 452.92 397.86
  L 455.39 395.03
  L 458.09 392.34
  L 461.11 389.68
  L 464.43 387.09
  L 468.04 384.54
  L 476.44 379.42
  L 480.77 376.84
  L 484.00 374.53
  L 486.48 372.23
  L 488.37 369.81
  L 489.35 368.11
  L 490.17 366.24
  L 491.38 361.88
  L 491.88 358.36
  L 492.04 354.90
  L 491.80 350.74
  L 491.10 346.67
  L 489.92 342.57
  L 488.32 338.58
  L 486.26 334.62
  L 483.72 330.63
  L 480.81 326.84
  L 477.43 323.08
  L 465.40 310.83
  L 451.85 297.37
  L 451.78 297.13
  L 451.95 296.94
  L 452.06 296.93
  L 460.42 298.05
  L 468.67 299.66
  L 468.67 299.66
  L 468.67 299.66
  L 468.67 299.66
  L 474.77 301.17
  L 480.80 302.95
  L 486.78 305.00
  L 492.70 307.31
  L 506.64 313.62
  L 509.48 314.64
  L 512.28 315.03
  L 514.23 314.94
  L 516.18 314.56
  L 518.14 313.90
  L 520.12 312.96
  L 525.97 309.97
  L 531.96 307.29
  L 538.18 304.86
  L 544.51 302.73
  L 551.11 300.85
  L 557.82 299.28
  L 564.74 297.98
  L 571.75 296.97
  L 572.45 296.89
  Z
  M 504.61 442.06
  L 500.58 438.69
  L 500.09 438.31
  L 485.21 426.78
  L 479.80 422.87
  L 474.57 419.34
  L 471.72 417.52
  L 471.12 417.30
  L 470.49 417.35
  L 469.93 417.66
  L 469.55 418.17
  L 469.48 418.35
  L 468.61 421.91
  L 468.01 426.00
  L 467.78 429.78
  L 467.94 433.21
  L 468.43 436.00
  L 469.25 438.26
  L 470.44 440.06
  L 471.90 441.24
  L 472.18 441.39
  L 475.01 442.68
  L 477.87 443.77
  L 480.77 444.65
  L 483.72 445.34
  L 483.72 445.34
  L 483.72 445.34
  L 483.72 445.34
  L 483.72 445.34
  L 487.77 445.95
  L 491.89 446.19
  L 496.09 446.06
  L 500.36 445.57
  L 501.56 445.27
  L 502.65 444.77
  L 503.68 444.01
  L 504.58 443.01
  L 504.74 442.54
  L 504.61 442.06
  Z
  M 520.36 441.94
  L 520.23 442.42
  L 520.40 442.89
  L 521.30 443.89
  L 522.34 444.65
  L 523.43 445.15
  L 524.64 445.44
  L 528.93 445.92
  L 533.14 446.02
  L 537.27 445.76
  L 541.34 445.13
  L 541.34 445.13
  L 541.34 445.13
  L 544.29 444.43
  L 547.20 443.52
  L 550.06 442.42
  L 552.89 441.11
  L 553.17 440.96
  L 554.63 439.77
  L 555.82 437.95
  L 556.63 435.67
  L 557.11 432.87
  L 557.25 429.43
  L 557.00 425.64
  L 556.38 421.55
  L 555.49 417.99
  L 555.42 417.80
  L 555.04 417.30
  L 554.48 416.99
  L 553.84 416.95
  L 553.24 417.17
  L 550.39 419.00
  L 545.16 422.58
  L 539.75 426.52
  L 524.87 438.15
  L 524.39 438.54
  L 520.36 441.94
  Z"
/>
<path fill="#ffffff" d="
  M 874.19 664.33
  L 873.98 664.86
  L 873.46 665.09
  L 873.46 665.09
  L 873.45 665.09
  L 862.32 665.09
  L 861.36 664.78
  L 860.77 663.97
  L 860.17 661.77
  L 859.36 658.91
  L 858.42 656.73
  L 857.52 655.28
  L 856.46 653.95
  L 853.75 651.56
  L 850.46 649.67
  L 846.60 648.28
  L 842.29 647.46
  L 837.72 647.27
  L 833.32 647.73
  L 829.32 648.81
  L 827.00 649.84
  L 825.00 651.09
  L 823.33 652.56
  L 821.98 654.24
  L 821.98 654.24
  L 821.98 654.24
  L 821.98 654.24
  L 820.88 656.30
  L 820.16 658.62
  L 819.83 661.19
  L 819.88 664.02
  L 819.90 664.25
  L 820.35 666.03
  L 821.23 667.67
  L 822.53 669.24
  L 824.31 670.77
  L 826.52 672.22
  L 829.09 673.53
  L 832.05 674.71
  L 835.10 675.64
  L 838.23 676.45
  L 845.87 678.47
  L 851.41 680.19
  L 856.24 682.03
  L 860.45 684.06
  L 864.15 686.35
  L 867.30 688.90
  L 869.86 691.71
  L 871.87 694.75
  L 873.20 697.60
  L 874.16 700.77
  L 874.71 704.10
  L 874.88 707.76
  L 874.76 709.77
  L 874.41 711.93
  L 873.06 716.72
  L 871.86 719.47
  L 870.27 722.05
  L 868.26 724.55
  L 865.94 726.82
  L 863.21 728.95
  L 860.28 730.76
  L 857.22 732.21
  L 854.09 733.29
  L 850.82 734.09
  L 847.48 734.66
  L 844.12 735.00
  L 840.74 735.11
  L 837.42 735.00
  L 834.14 734.65
  L 830.92 734.08
  L 827.78 733.28
  L 824.84 732.29
  L 822.01 731.08
  L 819.42 729.70
  L 816.97 728.11
  L 814.72 726.34
  L 812.66 724.38
  L 810.86 722.29
  L 809.26 720.01
  L 807.37 716.46
  L 805.96 712.52
  L 805.08 708.28
  L 804.76 703.87
  L 805.03 703.19
  L 805.70 702.90
  L 805.70 702.90
  L 805.71 702.90
  L 815.60 702.90
  L 816.21 703.01
  L 816.74 703.31
  L 817.15 703.78
  L 817.37 704.36
  L 818.55 710.36
  L 818.73 710.90
  L 820.32 713.50
  L 822.24 715.78
  L 822.24 715.78
  L 822.24 715.78
  L 823.88 717.26
  L 825.70 718.56
  L 827.71 719.69
  L 829.90 720.63
  L 833.65 721.80
  L 837.33 722.51
  L 840.95 722.75
  L 844.52 722.52
  L 844.52 722.52
  L 847.30 722.01
  L 850.04 721.20
  L 852.74 720.10
  L 855.41 718.71
  L 857.30 717.31
  L 857.30 717.31
  L 858.68 715.72
  L 859.77 713.80
  L 860.57 711.56
  L 861.06 709.01
  L 861.10 705.79
  L 860.83 704.29
  L 860.36 702.88
  L 860.36 702.88
  L 860.36 702.88
  L 858.95 700.40
  L 856.83 698.21
  L 854.91 696.76
  L 852.87 695.48
  L 848.12 693.20
  L 842.36 691.21
  L 833.98 688.99
  L 832.42 688.60
  L 826.35 686.81
  L 821.37 684.77
  L 817.15 682.33
  L 815.33 680.97
  L 813.64 679.45
  L 811.33 676.90
  L 809.44 674.23
  L 807.97 671.44
  L 806.92 668.53
  L 806.92 668.53
  L 806.92 668.53
  L 806.23 664.99
  L 806.10 661.28
  L 806.54 657.42
  L 807.56 653.39
  L 808.55 650.74
  L 809.75 648.38
  L 811.16 646.30
  L 812.78 644.50
  L 816.26 641.62
  L 820.26 639.21
  L 824.59 637.35
  L 829.35 636.02
  L 834.38 635.25
  L 839.68 635.06
  L 845.03 635.46
  L 850.25 636.43
  L 854.14 637.61
  L 857.80 639.21
  L 861.21 641.21
  L 864.32 643.57
  L 867.05 646.26
  L 869.40 649.26
  L 871.29 652.47
  L 872.74 655.94
  L 873.78 660.01
  L 874.19 664.33
  Z"
/>
<path fill="#ffffff" d="
  M 415.33 733.78
  L 415.27 733.81
  L 414.95 733.56
  L 414.95 636.86
  L 415.13 636.41
  L 415.58 636.20
  L 425.42 635.94
  L 442.50 635.82
  L 452.34 635.98
  L 458.74 636.49
  L 462.60 637.25
  L 466.32 638.37
  L 469.78 639.81
  L 473.04 641.58
  L 475.97 643.63
  L 478.66 645.99
  L 480.99 648.57
  L 483.02 651.44
  L 484.78 654.76
  L 486.15 658.39
  L 487.12 662.18
  L 487.72 665.98
  L 487.95 669.78
  L 487.79 673.54
  L 487.25 677.15
  L 486.32 680.66
  L 485.04 683.96
  L 483.36 687.11
  L 480.66 690.89
  L 477.44 694.20
  L 475.28 695.94
  L 472.48 697.72
  L 469.37 699.21
  L 466.06 700.37
  L 462.45 701.23
  L 458.56 701.80
  L 454.27 702.12
  L 449.50 702.22
  L 442.91 702.10
  L 440.28 702.04
  L 439.09 702.20
  L 437.81 702.73
  L 437.48 703.09
  L 437.46 703.58
  L 437.70 704.18
  L 437.90 704.90
  L 437.94 732.36
  L 437.83 732.72
  L 437.30 733.00
  L 418.53 733.01
  L 416.78 733.21
  L 415.33 733.78
  Z
  M 437.97 659.27
  L 438.11 679.75
  L 438.50 680.66
  L 439.41 681.03
  L 453.39 680.94
  L 455.63 680.71
  L 457.77 680.06
  L 459.75 679.01
  L 461.48 677.61
  L 462.89 675.91
  L 463.94 673.97
  L 464.58 671.87
  L 464.78 669.69
  L 464.78 668.97
  L 464.78 668.97
  L 464.54 666.79
  L 463.87 664.70
  L 462.80 662.77
  L 461.36 661.09
  L 459.61 659.71
  L 457.62 658.70
  L 455.47 658.08
  L 453.23 657.88
  L 439.25 657.97
  L 438.34 658.36
  L 437.97 659.27
  Z"
/>
<path fill="#ffffff" d="
  M 172.00 697.79
  L 172.00 732.02
  L 171.88 732.62
  L 171.53 733.12
  L 171.02 733.44
  L 170.42 733.53
  L 170.35 733.53
  L 165.36 733.21
  L 160.22 733.14
  L 154.94 733.31
  L 149.50 733.74
  L 148.81 733.58
  L 148.36 733.03
  L 148.24 731.50
  L 148.75 724.27
  L 148.77 717.75
  L 148.24 698.82
  L 147.96 679.19
  L 147.92 658.87
  L 148.13 637.85
  L 148.33 637.28
  L 148.84 636.95
  L 152.13 636.40
  L 155.14 636.44
  L 158.97 636.63
  L 164.34 636.35
  L 170.33 636.10
  L 170.99 636.25
  L 171.54 636.63
  L 171.91 637.20
  L 172.04 637.86
  L 172.04 673.99
  L 172.33 674.70
  L 173.04 674.99
  L 204.96 674.99
  L 205.67 674.69
  L 205.97 673.98
  L 205.97 636.90
  L 205.97 636.88
  L 206.24 636.28
  L 206.86 636.05
  L 229.09 637.02
  L 229.74 637.32
  L 230.01 637.98
  L 230.01 731.99
  L 229.68 732.80
  L 228.87 733.13
  L 207.01 733.13
  L 206.28 732.83
  L 205.98 732.09
  L 205.98 697.82
  L 205.75 697.26
  L 205.18 697.03
  L 172.77 697.03
  L 172.23 697.25
  L 172.00 697.79
  Z"
/>
<path fill="#ffffff" d="
  M 267.40 733.75
  L 267.16 733.78
  L 267.00 733.60
  L 267.00 733.60
  L 266.99 733.53
  L 266.99 658.75
  L 266.77 658.22
  L 266.24 658.00
  L 240.71 658.00
  L 240.22 657.79
  L 240.01 657.30
  L 240.01 637.38
  L 240.23 636.74
  L 240.80 636.38
  L 243.03 636.07
  L 246.18 636.03
  L 247.72 636.04
  L 261.00 635.93
  L 274.35 636.04
  L 287.76 636.37
  L 301.25 636.91
  L 309.50 637.11
  L 317.20 636.90
  L 317.74 637.10
  L 317.98 637.62
  L 317.98 637.62
  L 317.98 637.64
  L 317.98 656.98
  L 317.67 657.72
  L 316.93 658.02
  L 291.99 658.02
  L 291.23 658.17
  L 290.59 658.60
  L 290.16 659.25
  L 290.01 660.01
  L 290.01 733.10
  L 290.01 733.13
  L 289.79 733.58
  L 289.31 733.73
  L 284.36 733.29
  L 279.47 733.10
  L 274.63 733.14
  L 269.85 733.42
  L 269.13 733.41
  L 267.98 733.48
  L 267.40 733.75
  Z"
/>
<path fill="#ffffff" d="
  M 373.96 733.12
  L 353.20 733.12
  L 352.35 732.77
  L 352.00 731.92
  L 352.00 658.94
  L 352.00 658.94
  L 351.73 658.29
  L 351.07 658.02
  L 324.28 658.02
  L 324.08 657.94
  L 324.00 657.74
  L 324.00 637.32
  L 324.13 636.96
  L 324.46 636.77
  L 329.75 636.27
  L 348.19 635.93
  L 366.45 635.98
  L 384.52 636.43
  L 402.41 637.26
  L 402.89 637.48
  L 403.09 637.97
  L 403.09 657.19
  L 402.98 657.60
  L 402.68 657.90
  L 402.27 658.01
  L 375.86 658.01
  L 375.64 658.04
  L 375.18 658.35
  L 375.00 658.87
  L 375.00 732.08
  L 374.70 732.82
  L 373.96 733.12
  Z"
/>
<path fill="#ffffff" d="
  M 570.06 647.99
  L 569.76 648.72
  L 569.03 649.02
  L 540.70 649.02
  L 540.20 649.23
  L 539.99 649.72
  L 539.99 732.42
  L 539.82 732.83
  L 539.41 733.00
  L 525.64 733.00
  L 525.19 732.81
  L 525.00 732.36
  L 525.00 650.11
  L 524.68 649.35
  L 523.92 649.03
  L 495.42 649.03
  L 494.59 648.75
  L 494.19 648.27
  L 494.04 647.65
  L 494.04 637.36
  L 494.40 636.49
  L 495.26 636.12
  L 534.65 635.95
  L 552.80 636.53
  L 569.26 637.07
  L 569.83 637.30
  L 570.06 637.87
  L 570.06 647.99
  Z"
/>
<rect fill="#ffffff" x="586.99" y="636.04" width="14.00" height="97.02" rx="1.03"/>
<path fill="#ffffff" d="
  M 689.70 636.36
  L 690.19 636.49
  L 691.87 636.65
  L 693.98 636.47
  L 696.08 636.29
  L 697.72 636.48
  L 697.79 636.50
  L 699.53 636.78
  L 701.94 636.89
  L 702.48 637.03
  L 702.87 637.43
  L 703.02 637.97
  L 703.02 732.58
  L 702.86 732.97
  L 702.48 733.13
  L 702.48 733.13
  L 702.48 733.13
  L 691.66 733.13
  L 690.71 732.90
  L 689.96 732.25
  L 638.65 660.13
  L 638.52 660.02
  L 638.16 660.03
  L 637.99 660.34
  L 637.99 732.51
  L 637.84 732.86
  L 637.48 733.01
  L 625.79 733.01
  L 625.21 732.77
  L 624.97 732.19
  L 624.97 636.97
  L 625.11 636.82
  L 631.29 636.48
  L 637.32 636.90
  L 638.00 637.15
  L 638.53 637.64
  L 688.36 707.67
  L 688.48 707.77
  L 688.81 707.76
  L 688.97 707.47
  L 688.97 636.92
  L 689.17 636.48
  L 689.62 636.34
  L 689.70 636.36
  Z"
/>
<path fill="#ffffff" d="
  M 727.34 733.83
  L 727.01 733.67
  L 727.00 733.62
  L 726.88 704.16
  L 726.09 676.30
  L 725.85 666.02
  L 725.91 651.76
  L 725.97 638.09
  L 726.32 637.22
  L 727.18 636.85
  L 730.20 636.65
  L 732.92 636.47
  L 734.95 636.57
  L 738.50 636.77
  L 743.78 636.59
  L 751.02 636.43
  L 769.22 636.97
  L 789.15 637.03
  L 789.81 637.30
  L 790.08 637.96
  L 790.08 648.08
  L 789.81 648.73
  L 789.16 649.00
  L 742.62 649.00
  L 741.86 649.15
  L 741.21 649.59
  L 740.78 650.24
  L 740.64 651.00
  L 740.64 651.03
  L 740.30 657.49
  L 740.06 664.75
  L 740.50 674.74
  L 740.70 675.68
  L 741.15 676.37
  L 741.15 676.37
  L 741.92 676.82
  L 742.98 676.97
  L 782.58 677.12
  L 783.13 677.24
  L 783.59 677.56
  L 783.90 678.03
  L 784.01 678.58
  L 784.01 689.22
  L 783.78 689.77
  L 783.23 690.00
  L 741.59 690.00
  L 741.17 690.17
  L 741.00 690.59
  L 741.00 720.39
  L 741.18 720.82
  L 741.61 721.00
  L 791.07 721.00
  L 791.48 721.09
  L 791.89 721.45
  L 792.04 721.97
  L 792.04 732.12
  L 791.83 732.67
  L 791.31 732.93
  L 788.00 733.01
  L 731.82 732.98
  L 729.45 733.18
  L 727.34 733.83
  Z"
/>
</svg>
